<?xml version="1.0" encoding="UTF-8" standalone="no"?>
<!-- Created with Inkscape (http://www.inkscape.org/) -->

<svg
   version="1.1"
   id="svg1"
   width="201.20399"
   height="63.208"
   viewBox="0 0 201.20399 63.208"
   xmlns="http://www.w3.org/2000/svg"
   xmlns:svg="http://www.w3.org/2000/svg">
  <defs
     id="defs1" />
  <g
     id="g1">
    <path
       id="path1"
       d="m 0.56383594,-3.4090312 c 0,2.0625 1.60546876,3.63281245 3.45703126,3.63281245 1.6289062,0 2.6015625,-1.38281245 2.6015625,-2.54296875 0,-0.1054687 0,-0.1757812 -0.1289063,-0.1757812 -0.1054687,0 -0.1054687,0.070312 -0.1171875,0.1640625 -0.082031,1.42968745 -1.1484375,2.2382812 -2.2265625,2.2382812 -0.609375,0 -2.5664062,-0.33984375 -2.5664062,-3.3046875 0,-2.9765625 1.9453125,-3.3164062 2.5546875,-3.3164062 1.078125,0 1.96875,0.9023437 2.1679687,2.3671875 0.023437,0.1289062 0.023437,0.1640625 0.1640625,0.1640625 0.1523438,0 0.1523438,-0.035156 0.1523438,-0.234375 v -2.3671875 c 0,-0.1640625 0,-0.234375 -0.1054688,-0.234375 -0.035156,0 -0.082031,0 -0.1640625,0.1171875 l -0.4921875,0.7382812 c -0.375,-0.3632812 -0.8789062,-0.8554687 -1.8398437,-0.8554687 -1.8632813,0 -3.45703126,1.5820312 -3.45703126,3.609375 z m 0,0"
       style="fill:#ff0000;fill-opacity:1;fill-rule:nonzero;stroke:none"
       aria-label="C"
       transform="matrix(1.3333333,0,0,1.3333333,4.424,46.936)" />
    <path
       id="path2"
       d="m 6.1041875,-6.0223125 c 0,-0.3632812 0.023437,-0.46875 0.7851563,-0.46875 h 0.2460937 v -0.3164062 c -0.3515625,0.035156 -1.0898437,0.035156 -1.4648437,0.035156 -0.3867188,0 -1.125,0 -1.4765625,-0.035156 v 0.3164062 h 0.234375 c 0.7734375,0 0.7851562,0.1054688 0.7851562,0.46875 v 2.3320313 H 2.237 v -2.3320313 c 0,-0.3632812 0.023437,-0.46875 0.7851563,-0.46875 H 3.26825 v -0.3164062 c -0.3515625,0.035156 -1.0898437,0.035156 -1.4648437,0.035156 -0.375,0 -1.12500005,0 -1.47656255,-0.035156 v 0.3164062 h 0.234375 c 0.77343755,0 0.79687505,0.1054688 0.79687505,0.46875 v 5.25 c 0,0.3515625 -0.023437,0.46875 -0.79687505,0.46875 h -0.234375 V 0.001125 c 0.3515625,-0.03515625 1.08984375,-0.03515625 1.46484375,-0.03515625 0.375,0 1.125,0 1.4765625,0.03515625 V -0.3035625 H 3.0221563 C 2.2604375,-0.3035625 2.237,-0.42075 2.237,-0.7723125 v -2.6132812 h 2.9765625 v 2.6132812 c 0,0.3515625 -0.011719,0.46875 -0.7851562,0.46875 H 4.1940313 V 0.001125 c 0.3515625,-0.03515625 1.0898437,-0.03515625 1.4648437,-0.03515625 0.375,0 1.125,0 1.4765625,0.03515625 V -0.3035625 H 6.8893438 c -0.7617188,0 -0.7851563,-0.1171875 -0.7851563,-0.46875 z m 0,0"
       style="fill:#ff0000;fill-opacity:1;fill-rule:nonzero;stroke:none"
       aria-label="H"
       transform="matrix(1.3333333,0,0,1.3333333,14.017333,46.936)" />
    <path
       id="path3"
       d="m 1.8987891,-2.3307656 c 0.5507812,0 0.9375,0.375 0.9375,1.125 0,0.86718748 -0.5039063,1.12499998 -0.9023438,1.12499998 -0.28125,0 -0.890625,-0.08203125 -1.18359374,-0.4921875 0.32812504,-0.0117188 0.39843754,-0.24609375 0.39843754,-0.38671875 0,-0.22265623 -0.16406254,-0.38671873 -0.38671879,-0.38671873 -0.1875,0 -0.38671875,0.1171875 -0.38671875,0.41015623 0,0.65625 0.72656254,1.078125 1.57031254,1.078125 0.9726562,0 1.640625,-0.64453125 1.640625,-1.34765623 0,-0.5390625 -0.4453125,-1.0898438 -1.21875,-1.2421875 0.7382812,-0.2695313 0.9960937,-0.796875 0.9960937,-1.21875 0,-0.5507813 -0.6328125,-0.9609375 -1.40625,-0.9609375 -0.7734375,0 -1.35937499,0.375 -1.35937499,0.9375 0,0.234375 0.15234375,0.3632812 0.36328125,0.3632812 0.21093754,0 0.35156254,-0.1640625 0.35156254,-0.3515625 0,-0.1992187 -0.140625,-0.3515625 -0.35156254,-0.3632812 0.23437504,-0.3046875 0.71484374,-0.3867188 0.97265624,-0.3867188 0.3164063,0 0.7617188,0.1523438 0.7617188,0.7617188 0,0.2929687 -0.1054688,0.609375 -0.28125,0.8320312 -0.234375,0.2578125 -0.421875,0.28125 -0.7734375,0.2929688 -0.1757813,0.023437 -0.1875,0.023437 -0.2226563,0.023437 -0.011719,0 -0.070312,0.011719 -0.070312,0.09375 0,0.09375 0.058594,0.09375 0.1757813,0.09375 z m 0,0"
       style="fill:#ff0000;fill-opacity:1;fill-rule:nonzero;stroke:none"
       aria-label="3"
       transform="matrix(1.3333333,0,0,1.3333333,23.98,48.928)" />
    <path
       id="path4"
       d="m 0.56107031,-3.4089609 c 0,2.0625 1.60546879,3.63281246 3.45703129,3.63281246 1.6289062,0 2.6015625,-1.38281246 2.6015625,-2.54296876 0,-0.1054687 0,-0.1757812 -0.1289063,-0.1757812 -0.1054687,0 -0.1054687,0.070312 -0.1171875,0.1640625 -0.082031,1.42968746 -1.1484375,2.23828121 -2.2265625,2.23828121 -0.609375,0 -2.5664062,-0.33984375 -2.5664062,-3.30468751 0,-2.9765625 1.9453125,-3.3164062 2.5546875,-3.3164062 1.078125,0 1.96875,0.9023437 2.1679687,2.3671875 0.023437,0.1289062 0.023437,0.1640625 0.1640625,0.1640625 0.1523438,0 0.1523438,-0.035156 0.1523438,-0.234375 v -2.3671875 c 0,-0.1640625 0,-0.234375 -0.1054688,-0.234375 -0.035156,0 -0.082031,0 -0.1640625,0.1171875 l -0.4921875,0.7382812 c -0.375,-0.3632812 -0.8789062,-0.8554687 -1.8398437,-0.8554687 -1.8632813,0 -3.45703129,1.5820312 -3.45703129,3.609375 z m 0,0"
       style="fill:#ff0000;fill-opacity:1;fill-rule:nonzero;stroke:none"
       aria-label="C"
       transform="matrix(1.3333333,0,0,1.3333333,43.748,47.932)" />
    <path
       id="path5"
       d="m 6.1043516,-6.0222422 c 0,-0.3632812 0.023437,-0.46875 0.7851562,-0.46875 h 0.2460938 v -0.3164062 c -0.3515625,0.035156 -1.0898438,0.035156 -1.4648438,0.035156 -0.3867187,0 -1.125,0 -1.4765625,-0.035156 v 0.3164062 h 0.234375 c 0.7734375,0 0.7851563,0.1054688 0.7851563,0.46875 v 2.3320313 H 2.2371641 v -2.3320313 c 0,-0.3632812 0.023437,-0.46875 0.7851562,-0.46875 h 0.2460938 v -0.3164062 c -0.3515625,0.035156 -1.0898438,0.035156 -1.4648438,0.035156 -0.375,0 -1.12499999,0 -1.47656249,-0.035156 v 0.3164062 h 0.234375 c 0.77343749,0 0.79687499,0.1054688 0.79687499,0.46875 v 5.25000001 c 0,0.3515625 -0.023437,0.46875 -0.79687499,0.46875 h -0.234375 v 0.3046875 c 0.3515625,-0.03515625 1.08984379,-0.03515625 1.46484379,-0.03515625 0.375,0 1.125,0 1.4765625,0.03515625 v -0.3046875 H 3.0223203 c -0.7617187,0 -0.7851562,-0.1171875 -0.7851562,-0.46875 V -3.3855234 h 2.9765625 v 2.61328121 c 0,0.3515625 -0.011719,0.46875 -0.7851563,0.46875 h -0.234375 v 0.3046875 c 0.3515625,-0.03515625 1.0898438,-0.03515625 1.4648438,-0.03515625 0.375,0 1.125,0 1.4765625,0.03515625 v -0.3046875 H 6.8895078 c -0.7617187,0 -0.7851562,-0.1171875 -0.7851562,-0.46875 z m 0,0"
       style="fill:#ff0000;fill-opacity:1;fill-rule:nonzero;stroke:none"
       aria-label="H"
       transform="matrix(1.3333333,0,0,1.3333333,53.341333,47.932)" />
    <path
       id="path6"
       d="m 3.5161406,-1.2642891 h -0.234375 c -0.023437,0.1523438 -0.082031,0.56250004 -0.1757812,0.63281254 -0.058594,0.0351563 -0.5976563,0.0351563 -0.6914063,0.0351563 H 1.1255156 c 0.7382813,-0.64453124 0.984375,-0.84374994 1.3945313,-1.17187504 0.515625,-0.4101563 0.9960937,-0.84375 0.9960937,-1.5 0,-0.8437499 -0.7382812,-1.3593749 -1.6289062,-1.3593749 -0.8671875,0 -1.45312503,0.609375 -1.45312503,1.2421875 0,0.3632811 0.3046875,0.3984374 0.375,0.3984374 0.1640625,0 0.37500003,-0.1171874 0.37500003,-0.3749999 0,-0.1289064 -0.058594,-0.3632814 -0.42187503,-0.3632814 0.22265625,-0.5039061 0.69140623,-0.65625 1.01953123,-0.65625 0.703125,0 1.0664063,0.5507813 1.0664063,1.1132813 0,0.609375 -0.4335938,1.0898437 -0.65625,1.3359375 l -1.68750003,1.66406254 c -0.0703125,0.0585938 -0.0703125,0.0703125 -0.0703125,0.26953125 H 3.3169219 Z m 0,0"
       style="fill:#ff0000;fill-opacity:1;fill-rule:nonzero;stroke:none"
       aria-label="2"
       transform="matrix(1.3333333,0,0,1.3333333,63.304,49.924)" />
    <path
       id="path7"
       d="m 17.53171,2.65674 h 6.37204"
       style="fill:none;stroke:#ff0000;stroke-width:0.3985;stroke-linecap:butt;stroke-linejoin:miter;stroke-miterlimit:10;stroke-dasharray:none;stroke-opacity:1"
       transform="matrix(1.3333333,0,0,-1.3333333,9.22,46.936)" />
    <path
       id="path8"
       d="m 0.56316406,-3.4088906 c 0,2.0625 1.60546874,3.63281248 3.45703124,3.63281248 1.6289063,0 2.6015625,-1.38281248 2.6015625,-2.54296878 0,-0.1054687 0,-0.1757812 -0.1289062,-0.1757812 -0.1054688,0 -0.1054688,0.070312 -0.1171875,0.1640625 -0.082031,1.42968748 -1.1484375,2.23828123 -2.2265625,2.23828123 -0.609375,0 -2.5664063,-0.33984375 -2.5664063,-3.30468753 0,-2.9765625 1.9453125,-3.3164062 2.5546875,-3.3164062 1.078125,0 1.96875,0.9023437 2.1679688,2.3671875 0.023437,0.1289062 0.023437,0.1640625 0.1640625,0.1640625 0.1523437,0 0.1523437,-0.035156 0.1523437,-0.234375 v -2.3671875 c 0,-0.1640625 0,-0.234375 -0.1054687,-0.234375 -0.035156,0 -0.082031,0 -0.1640625,0.1171875 l -0.4921875,0.7382812 c -0.375,-0.3632812 -0.8789063,-0.8554687 -1.8398438,-0.8554687 -1.8632812,0 -3.45703124,1.5820312 -3.45703124,3.609375 z m 0,0"
       style="fill:#ff0000;fill-opacity:1;fill-rule:nonzero;stroke:none"
       aria-label="C"
       transform="matrix(1.3333333,0,0,1.3333333,83.073333,48.928)" />
    <path
       id="path9"
       d="m 47.02567,1.90955 h 6.37205"
       style="fill:none;stroke:#ff0000;stroke-width:0.3985;stroke-linecap:butt;stroke-linejoin:miter;stroke-miterlimit:10;stroke-dasharray:none;stroke-opacity:1"
       transform="matrix(1.3333333,0,0,-1.3333333,9.22,46.936)" />
    <path
       id="path10"
       d="m 7.1829375,-3.3735391 c 0,-2.0390625 -1.5,-3.6445312 -3.3164062,-3.6445312 -1.78125,0 -3.30468755,1.59375 -3.30468755,3.6445312 0,2.0390625 1.53515625,3.59765629 3.30468755,3.59765629 1.8164062,0 3.3164062,-1.58203129 3.3164062,-3.59765629 z M 3.87825,-0.03369531 c -0.9609375,0 -2.296875,-0.87890625 -2.296875,-3.48046879 0,-2.578125 1.453125,-3.2578125 2.2851563,-3.2578125 0.8671875,0 2.2851562,0.703125 2.2851562,3.2578125 0,2.63671879 -1.359375,3.48046879 -2.2734375,3.48046879 z m 0,0"
       style="fill:#ff0000;fill-opacity:1;fill-rule:nonzero;stroke:none"
       aria-label="O"
       transform="matrix(1.3333333,0,0,1.3333333,82.704,22.361333)" />
    <path
       id="path11"
       d="m 57.99165,7.30606 v 9.13249"
       style="fill:none;stroke:#ff0000;stroke-width:0.3985;stroke-linecap:butt;stroke-linejoin:miter;stroke-miterlimit:10;stroke-dasharray:none;stroke-opacity:1"
       transform="matrix(1.3333333,0,0,-1.3333333,9.22,46.936)" />
    <path
       id="path12"
       d="m 59.9842,7.30606 v 9.13249"
       style="fill:none;stroke:#ff0000;stroke-width:0.3985;stroke-linecap:butt;stroke-linejoin:miter;stroke-miterlimit:10;stroke-dasharray:none;stroke-opacity:1"
       transform="matrix(1.3333333,0,0,-1.3333333,9.22,46.936)" />
    <path
       id="path13"
       d="m 7.1827422,-3.3737344 c 0,-2.0390625 -1.5,-3.6445312 -3.3164063,-3.6445312 -1.78125,0 -3.30468746,1.59375 -3.30468746,3.6445312 0,2.0390625 1.53515626,3.59765628 3.30468746,3.59765628 1.8164063,0 3.3164063,-1.58203128 3.3164063,-3.59765628 z m -3.3046875,3.33984378 c -0.9609375,0 -2.296875,-0.87890625 -2.296875,-3.48046878 0,-2.578125 1.453125,-3.2578125 2.2851562,-3.2578125 0.8671875,0 2.2851563,0.703125 2.2851563,3.2578125 0,2.63671878 -1.359375,3.48046878 -2.2734375,3.48046878 z m 0,0"
       style="fill:#ff0000;fill-opacity:1;fill-rule:nonzero;stroke:none"
       aria-label="O"
       transform="matrix(1.3333333,0,0,1.3333333,109.27067,48.928)" />
    <path
       id="path14"
       d="m 64.57819,1.90955 h 8.46826"
       style="fill:none;stroke:#ff0000;stroke-width:0.3985;stroke-linecap:butt;stroke-linejoin:miter;stroke-miterlimit:10;stroke-dasharray:none;stroke-opacity:1"
       transform="matrix(1.3333333,0,0,-1.3333333,9.22,46.936)" />
    <path
       id="path15"
       d="m 0.562625,-3.4089609 c 0,2.0625 1.6054687,3.63281246 3.4570312,3.63281246 1.6289063,0 2.6015625,-1.38281246 2.6015625,-2.54296876 0,-0.1054687 0,-0.1757812 -0.1289062,-0.1757812 -0.1054688,0 -0.1054688,0.070312 -0.1171875,0.1640625 -0.082031,1.42968746 -1.1484375,2.23828121 -2.2265625,2.23828121 -0.609375,0 -2.5664063,-0.33984375 -2.5664063,-3.30468751 0,-2.9765625 1.9453125,-3.3164062 2.5546875,-3.3164062 1.078125,0 1.96875,0.9023437 2.1679688,2.3671875 0.023437,0.1289062 0.023437,0.1640625 0.1640625,0.1640625 0.1523437,0 0.1523437,-0.035156 0.1523437,-0.234375 v -2.3671875 c 0,-0.1640625 0,-0.234375 -0.1054687,-0.234375 -0.035156,0 -0.082031,0 -0.1640625,0.1171875 L 5.8595,-6.1628672 c -0.375,-0.3632812 -0.8789063,-0.8554687 -1.8398438,-0.8554687 -1.8632812,0 -3.4570312,1.5820312 -3.4570312,3.609375 z m 12.738281,-2.6132813 c 0,-0.3632812 0.02344,-0.46875 0.785156,-0.46875 h 0.246094 v -0.3164062 c -0.351562,0.035156 -1.089844,0.035156 -1.464844,0.035156 -0.386718,0 -1.125,0 -1.476562,-0.035156 v 0.3164062 h 0.234375 c 0.773437,0 0.785156,0.1054688 0.785156,0.46875 v 2.3320313 H 9.4337187 v -2.3320313 c 0,-0.3632812 0.023437,-0.46875 0.7851563,-0.46875 h 0.246094 v -0.3164062 c -0.351563,0.035156 -1.089844,0.035156 -1.464844,0.035156 -0.375,0 -1.125,0 -1.4765625,-0.035156 v 0.3164062 h 0.234375 c 0.7734375,0 0.796875,0.1054688 0.796875,0.46875 v 5.25000001 c 0,0.3515625 -0.023437,0.46875 -0.796875,0.46875 h -0.234375 v 0.3046875 c 0.3515625,-0.03515625 1.0898437,-0.03515625 1.4648437,-0.03515625 0.375,0 1.1249998,0 1.4765628,0.03515625 v -0.3046875 h -0.246094 c -0.7617188,0 -0.7851563,-0.1171875 -0.7851563,-0.46875 V -3.3855234 h 2.9765623 v 2.61328121 c 0,0.3515625 -0.01172,0.46875 -0.785156,0.46875 H 11.39075 v 0.3046875 c 0.351562,-0.03515625 1.089844,-0.03515625 1.464844,-0.03515625 0.375,0 1.125,0 1.476562,0.03515625 v -0.3046875 h -0.246094 c -0.761718,0 -0.785156,-0.1171875 -0.785156,-0.46875 z m 0,0"
       style="fill:#0000ff;fill-opacity:1;fill-rule:nonzero;stroke:none"
       aria-label="CH"
       transform="matrix(1.3333333,0,0,1.3333333,133.93733,47.932)" />
    <path
       id="path16"
       d="m 3.5166953,-1.2642891 h -0.234375 c -0.023437,0.1523438 -0.082031,0.56250004 -0.1757812,0.63281254 -0.058594,0.0351563 -0.5976563,0.0351563 -0.6914063,0.0351563 H 1.1260703 c 0.7382813,-0.64453124 0.984375,-0.84374994 1.3945313,-1.17187504 0.515625,-0.4101563 0.9960937,-0.84375 0.9960937,-1.5 0,-0.8437499 -0.7382812,-1.3593749 -1.6289062,-1.3593749 -0.8671875,0 -1.45312504,0.609375 -1.45312504,1.2421875 0,0.3632811 0.3046875,0.3984374 0.375,0.3984374 0.1640625,0 0.37500004,-0.1171874 0.37500004,-0.3749999 0,-0.1289064 -0.058594,-0.3632814 -0.42187504,-0.3632814 0.22265625,-0.5039061 0.69140624,-0.65625 1.01953124,-0.65625 0.703125,0 1.0664063,0.5507813 1.0664063,1.1132813 0,0.609375 -0.4335938,1.0898437 -0.65625,1.3359375 l -1.68750004,1.66406254 c -0.0703125,0.0585938 -0.0703125,0.0703125 -0.0703125,0.26953125 H 3.3174766 Z m 0,0"
       style="fill:#0000ff;fill-opacity:1;fill-rule:nonzero;stroke:none"
       aria-label="2"
       transform="matrix(1.3333333,0,0,1.3333333,153.49467,49.924)" />
    <path
       id="path17"
       d="m 6.5631875,-2.2956797 c 0.1757813,0 0.3515625,0 0.3515625,-0.1992187 0,-0.1992188 -0.1757812,-0.1992188 -0.3515625,-0.1992188 h -5.390625 c -0.1640625,0 -0.33984375,0 -0.33984375,0.1992188 0,0.1992187 0.17578125,0.1992187 0.33984375,0.1992187 z m 0,0"
       style="fill:#0000ff;fill-opacity:1;fill-rule:nonzero;stroke:none"
       aria-label="−"
       transform="matrix(1.3333333,0,0,1.3333333,162.40533,47.932)" />
    <path
       id="path18"
       d="m 0.562125,-3.4089609 c 0,2.0625 1.6054688,3.63281246 3.4570313,3.63281246 1.6289062,0 2.6015625,-1.38281246 2.6015625,-2.54296876 0,-0.1054687 0,-0.1757812 -0.1289063,-0.1757812 -0.1054687,0 -0.1054687,0.070312 -0.1171875,0.1640625 -0.082031,1.42968746 -1.1484375,2.23828121 -2.2265625,2.23828121 -0.609375,0 -2.5664062,-0.33984375 -2.5664062,-3.30468751 0,-2.9765625 1.9453125,-3.3164062 2.5546875,-3.3164062 1.078125,0 1.96875,0.9023437 2.1679687,2.3671875 0.023437,0.1289062 0.023437,0.1640625 0.1640625,0.1640625 0.1523438,0 0.1523438,-0.035156 0.1523438,-0.234375 v -2.3671875 c 0,-0.1640625 0,-0.234375 -0.1054688,-0.234375 -0.035156,0 -0.082031,0 -0.1640625,0.1171875 L 5.859,-6.1628672 C 5.484,-6.5261484 4.9800938,-7.0183359 4.0191563,-7.0183359 c -1.8632813,0 -3.4570313,1.5820312 -3.4570313,3.609375 z m 12.738281,-2.6132813 c 0,-0.3632812 0.02344,-0.46875 0.785157,-0.46875 h 0.246093 v -0.3164062 c -0.351562,0.035156 -1.089843,0.035156 -1.464843,0.035156 -0.386719,0 -1.125,0 -1.476563,-0.035156 v 0.3164062 h 0.234375 c 0.773438,0 0.785156,0.1054688 0.785156,0.46875 v 2.3320313 H 9.4332188 v -2.3320313 c 0,-0.3632812 0.023437,-0.46875 0.7851562,-0.46875 h 0.246094 v -0.3164062 c -0.351563,0.035156 -1.089844,0.035156 -1.464844,0.035156 -0.375,0 -1.125,0 -1.4765625,-0.035156 v 0.3164062 h 0.234375 c 0.7734375,0 0.796875,0.1054688 0.796875,0.46875 v 5.25000001 c 0,0.3515625 -0.023437,0.46875 -0.796875,0.46875 h -0.234375 v 0.3046875 c 0.3515625,-0.03515625 1.0898438,-0.03515625 1.4648438,-0.03515625 0.375,0 1.1249997,0 1.4765627,0.03515625 v -0.3046875 h -0.246094 c -0.7617187,0 -0.7851562,-0.1171875 -0.7851562,-0.46875 V -3.3855234 h 2.9765622 v 2.61328121 c 0,0.3515625 -0.01172,0.46875 -0.785156,0.46875 H 11.39025 v 0.3046875 c 0.351563,-0.03515625 1.089844,-0.03515625 1.464844,-0.03515625 0.375,0 1.125,0 1.476562,0.03515625 v -0.3046875 h -0.246093 c -0.761719,0 -0.785157,-0.1171875 -0.785157,-0.46875 z m 0,0"
       style="fill:#0000ff;fill-opacity:1;fill-rule:nonzero;stroke:none"
       aria-label="CH"
       transform="matrix(1.3333333,0,0,1.3333333,175.688,47.932)" />
    <path
       id="path19"
       d="m 1.8990078,-2.3306953 c 0.5507813,0 0.9375,0.375 0.9375,1.125 0,0.86718749 -0.5039062,1.12499999 -0.9023437,1.12499999 -0.28125,0 -0.890625,-0.08203125 -1.18359379,-0.4921875 0.32812499,-0.0117188 0.39843749,-0.24609375 0.39843749,-0.38671875 0,-0.22265624 -0.16406249,-0.38671874 -0.38671874,-0.38671874 -0.1875,0 -0.38671875,0.1171875 -0.38671875,0.41015624 0,0.65625 0.72656249,1.078125 1.57031249,1.078125 0.9726563,0 1.640625,-0.64453125 1.640625,-1.34765624 0,-0.5390625 -0.4453125,-1.0898438 -1.21875,-1.2421875 0.7382813,-0.2695313 0.9960938,-0.796875 0.9960938,-1.21875 0,-0.5507813 -0.6328125,-0.9609375 -1.40625,-0.9609375 -0.7734375,0 -1.35937504,0.375 -1.35937504,0.9375 0,0.234375 0.15234375,0.3632812 0.36328125,0.3632812 0.21093749,0 0.35156249,-0.1640625 0.35156249,-0.3515625 0,-0.1992187 -0.140625,-0.3515625 -0.35156249,-0.3632812 0.23437499,-0.3046875 0.71484379,-0.3867188 0.97265629,-0.3867188 0.3164062,0 0.7617187,0.1523438 0.7617187,0.7617188 0,0.2929687 -0.1054687,0.609375 -0.28125,0.8320312 -0.234375,0.2578125 -0.421875,0.28125 -0.7734375,0.2929688 -0.1757812,0.023437 -0.1875,0.023437 -0.2226562,0.023437 -0.011719,0 -0.070312,0.011719 -0.070312,0.09375 0,0.09375 0.058594,0.09375 0.1757812,0.09375 z m 0,0"
       style="fill:#0000ff;fill-opacity:1;fill-rule:nonzero;stroke:none"
       aria-label="3"
       transform="matrix(1.3333333,0,0,1.3333333,195.24533,49.924)" />
    <path
       id="path20"
       d="m 84.78049,1.90955 h 6.76626"
       style="fill:none;stroke:#ff0000;stroke-width:0.3985;stroke-linecap:butt;stroke-linejoin:miter;stroke-miterlimit:10;stroke-dasharray:none;stroke-opacity:1"
       transform="matrix(1.3333333,0,0,-1.3333333,9.22,46.936)" />
  </g>
</svg>
