<?xml version="1.0" encoding="UTF-8" standalone="no"?>
<!-- Created with Inkscape (http://www.inkscape.org/) -->

<svg
   version="1.1"
   id="svg1"
   width="149.30667"
   height="63.208"
   viewBox="0 0 149.30667 63.208"
   xmlns="http://www.w3.org/2000/svg"
   xmlns:svg="http://www.w3.org/2000/svg">
  <defs
     id="defs1" />
  <g
     id="g1">
    <path
       id="path1"
       d="m 6.1068047,-6.0221719 c 0,-0.3632812 0.023437,-0.46875 0.7851562,-0.46875 h 0.2460938 v -0.3164062 c -0.3515625,0.035156 -1.0898438,0.035156 -1.4648438,0.035156 -0.3867187,0 -1.125,0 -1.4765625,-0.035156 v 0.3164062 h 0.234375 c 0.7734375,0 0.7851563,0.1054688 0.7851563,0.46875 v 2.3320313 H 2.2396172 v -2.3320313 c 0,-0.3632812 0.023437,-0.46875 0.7851562,-0.46875 h 0.2460938 v -0.3164062 c -0.3515625,0.035156 -1.0898438,0.035156 -1.4648438,0.035156 -0.375,0 -1.12499996,0 -1.47656246,-0.035156 v 0.3164062 h 0.234375 c 0.77343746,0 0.79687496,0.1054688 0.79687496,0.46875 v 5.25000003 c 0,0.3515625 -0.023437,0.46875 -0.79687496,0.46875 h -0.234375 v 0.3046875 c 0.3515625,-0.03515625 1.08984376,-0.03515625 1.46484376,-0.03515625 0.375,0 1.125,0 1.4765625,0.03515625 v -0.3046875 H 3.0247734 c -0.7617187,0 -0.7851562,-0.1171875 -0.7851562,-0.46875 V -3.3854531 h 2.9765625 v 2.61328123 c 0,0.3515625 -0.011719,0.46875 -0.7851563,0.46875 h -0.234375 v 0.3046875 c 0.3515625,-0.03515625 1.0898438,-0.03515625 1.4648438,-0.03515625 0.375,0 1.125,0 1.4765625,0.03515625 v -0.3046875 H 6.8919609 c -0.7617187,0 -0.7851562,-0.1171875 -0.7851562,-0.46875 z m 0,0"
       style="fill:#ff0000;fill-opacity:1;fill-rule:nonzero;stroke:none"
       aria-label="H"
       transform="matrix(1.3333333,0,0,1.3333333,4.424,48.928)" />
    <path
       id="path2"
       d="m 0.56333594,-3.4088906 c 0,2.0625 1.60546876,3.63281248 3.45703126,3.63281248 1.6289062,0 2.6015625,-1.38281248 2.6015625,-2.54296878 0,-0.1054687 0,-0.1757812 -0.1289063,-0.1757812 -0.1054687,0 -0.1054687,0.070312 -0.1171875,0.1640625 -0.082031,1.42968748 -1.1484375,2.23828123 -2.2265625,2.23828123 -0.609375,0 -2.5664062,-0.33984375 -2.5664062,-3.30468753 0,-2.9765625 1.9453125,-3.3164062 2.5546875,-3.3164062 1.078125,0 1.96875,0.9023437 2.1679687,2.3671875 0.023437,0.1289062 0.023437,0.1640625 0.1640625,0.1640625 0.1523438,0 0.1523438,-0.035156 0.1523438,-0.234375 v -2.3671875 c 0,-0.1640625 0,-0.234375 -0.1054688,-0.234375 -0.035156,0 -0.082031,0 -0.1640625,0.1171875 l -0.4921875,0.7382812 c -0.375,-0.3632812 -0.8789062,-0.8554687 -1.8398437,-0.8554687 -1.8632813,0 -3.45703126,1.5820312 -3.45703126,3.609375 z m 0,0"
       style="fill:#ff0000;fill-opacity:1;fill-rule:nonzero;stroke:none"
       aria-label="C"
       transform="matrix(1.3333333,0,0,1.3333333,31.174667,48.928)" />
    <path
       id="path3"
       d="M 5.72849,3.40393 H 14.3354"
       style="fill:none;stroke:#ff0000;stroke-width:0.3985;stroke-linecap:butt;stroke-linejoin:miter;stroke-miterlimit:10;stroke-dasharray:none;stroke-opacity:1"
       transform="matrix(1.3333333,0,0,-1.3333333,9.4053333,48.928)" />
    <path
       id="path4"
       d="m 7.1831094,-3.3735391 c 0,-2.0390625 -1.5,-3.6445312 -3.3164063,-3.6445312 -1.78125,0 -3.30468747,1.59375 -3.30468747,3.6445312 0,2.0390625 1.53515627,3.59765629 3.30468747,3.59765629 1.8164063,0 3.3164063,-1.58203129 3.3164063,-3.59765629 z m -3.3046875,3.33984379 c -0.9609375,0 -2.296875,-0.87890625 -2.296875,-3.48046879 0,-2.578125 1.453125,-3.2578125 2.2851562,-3.2578125 0.8671875,0 2.2851563,0.703125 2.2851563,3.2578125 0,2.63671879 -1.359375,3.48046879 -2.2734375,3.48046879 z m 0,0"
       style="fill:#ff0000;fill-opacity:1;fill-rule:nonzero;stroke:none"
       aria-label="O"
       transform="matrix(1.3333333,0,0,1.3333333,30.805333,22.361333)" />
    <path
       id="path5"
       d="m 18.92926,8.80045 v 9.13249"
       style="fill:none;stroke:#ff0000;stroke-width:0.3985;stroke-linecap:butt;stroke-linejoin:miter;stroke-miterlimit:10;stroke-dasharray:none;stroke-opacity:1"
       transform="matrix(1.3333333,0,0,-1.3333333,9.4053333,48.928)" />
    <path
       id="path6"
       d="m 20.92181,8.80045 v 9.13249"
       style="fill:none;stroke:#ff0000;stroke-width:0.3985;stroke-linecap:butt;stroke-linejoin:miter;stroke-miterlimit:10;stroke-dasharray:none;stroke-opacity:1"
       transform="matrix(1.3333333,0,0,-1.3333333,9.4053333,48.928)" />
    <path
       id="path7"
       d="m 7.1848438,-3.3737344 c 0,-2.0390625 -1.5,-3.6445312 -3.3164063,-3.6445312 -1.78125,0 -3.3046875,1.59375 -3.3046875,3.6445312 0,2.0390625 1.5351563,3.59765628 3.3046875,3.59765628 1.8164063,0 3.3164063,-1.58203128 3.3164063,-3.59765628 z m -3.3046875,3.33984378 c -0.9609375,0 -2.296875,-0.87890625 -2.296875,-3.48046878 0,-2.578125 1.453125,-3.2578125 2.2851562,-3.2578125 0.8671875,0 2.2851563,0.703125 2.2851563,3.2578125 0,2.63671878 -1.359375,3.48046878 -2.2734375,3.48046878 z m 0,0"
       style="fill:#ff0000;fill-opacity:1;fill-rule:nonzero;stroke:none"
       aria-label="O"
       transform="matrix(1.3333333,0,0,1.3333333,57.373333,48.928)" />
    <path
       id="path8"
       d="m 25.51578,3.40393 h 8.46826"
       style="fill:none;stroke:#ff0000;stroke-width:0.3985;stroke-linecap:butt;stroke-linejoin:miter;stroke-miterlimit:10;stroke-dasharray:none;stroke-opacity:1"
       transform="matrix(1.3333333,0,0,-1.3333333,9.4053333,48.928)" />
    <path
       id="path9"
       d="m 0.56179688,-3.4089609 c 0,2.0625 1.60546872,3.63281246 3.45703122,3.63281246 1.6289063,0 2.6015625,-1.38281246 2.6015625,-2.54296876 0,-0.1054687 0,-0.1757812 -0.1289062,-0.1757812 -0.1054688,0 -0.1054688,0.070312 -0.1171875,0.1640625 -0.082031,1.42968746 -1.1484375,2.23828121 -2.2265625,2.23828121 -0.609375,0 -2.5664063,-0.33984375 -2.5664063,-3.30468751 0,-2.9765625 1.9453125,-3.3164062 2.5546875,-3.3164062 1.078125,0 1.96875,0.9023437 2.1679688,2.3671875 0.023437,0.1289062 0.023437,0.1640625 0.1640625,0.1640625 0.1523437,0 0.1523437,-0.035156 0.1523437,-0.234375 v -2.3671875 c 0,-0.1640625 0,-0.234375 -0.1054687,-0.234375 -0.035156,0 -0.082031,0 -0.1640625,0.1171875 l -0.4921875,0.7382812 c -0.375,-0.3632812 -0.8789063,-0.8554687 -1.8398438,-0.8554687 -1.8632812,0 -3.45703122,1.5820312 -3.45703122,3.609375 z M 13.300078,-6.0222422 c 0,-0.3632812 0.02344,-0.46875 0.785156,-0.46875 h 0.246094 v -0.3164062 c -0.351562,0.035156 -1.089844,0.035156 -1.464844,0.035156 -0.386718,0 -1.125,0 -1.476562,-0.035156 v 0.3164062 h 0.234375 c 0.773437,0 0.785156,0.1054688 0.785156,0.46875 v 2.3320313 H 9.4328906 v -2.3320313 c 0,-0.3632812 0.023437,-0.46875 0.7851564,-0.46875 h 0.246094 v -0.3164062 c -0.351563,0.035156 -1.0898441,0.035156 -1.4648441,0.035156 -0.375,0 -1.125,0 -1.4765625,-0.035156 v 0.3164062 h 0.234375 c 0.7734375,0 0.796875,0.1054688 0.796875,0.46875 v 5.25000001 c 0,0.3515625 -0.023437,0.46875 -0.796875,0.46875 h -0.234375 v 0.3046875 c 0.3515625,-0.03515625 1.0898437,-0.03515625 1.4648437,-0.03515625 0.375,0 1.1249999,0 1.4765629,0.03515625 v -0.3046875 h -0.246094 c -0.7617189,0 -0.7851564,-0.1171875 -0.7851564,-0.46875 V -3.3855234 h 2.9765624 v 2.61328121 c 0,0.3515625 -0.01172,0.46875 -0.785156,0.46875 h -0.234375 v 0.3046875 c 0.351562,-0.03515625 1.089844,-0.03515625 1.464844,-0.03515625 0.375,0 1.125,0 1.476562,0.03515625 v -0.3046875 h -0.246094 c -0.761718,0 -0.785156,-0.1171875 -0.785156,-0.46875 z m 0,0"
       style="fill:#0000ff;fill-opacity:1;fill-rule:nonzero;stroke:none"
       aria-label="CH"
       transform="matrix(1.3333333,0,0,1.3333333,82.04,47.932)" />
    <path
       id="path10"
       d="m 3.5168672,-1.2642891 h -0.234375 c -0.023437,0.1523438 -0.082031,0.56250004 -0.1757813,0.63281254 -0.058594,0.0351563 -0.5976562,0.0351563 -0.6914062,0.0351563 H 1.1262422 c 0.7382812,-0.64453124 0.984375,-0.84374994 1.3945312,-1.17187504 0.515625,-0.4101563 0.9960938,-0.84375 0.9960938,-1.5 0,-0.8437499 -0.7382813,-1.3593749 -1.6289063,-1.3593749 -0.8671875,0 -1.45312496,0.609375 -1.45312496,1.2421875 0,0.3632811 0.3046875,0.3984374 0.375,0.3984374 0.1640625,0 0.37499996,-0.1171874 0.37499996,-0.3749999 0,-0.1289064 -0.058594,-0.3632814 -0.42187496,-0.3632814 0.22265625,-0.5039061 0.69140626,-0.65625 1.01953126,-0.65625 0.703125,0 1.0664062,0.5507813 1.0664062,1.1132813 0,0.609375 -0.4335937,1.0898437 -0.65625,1.3359375 l -1.68749996,1.66406254 c -0.0703125,0.0585938 -0.0703125,0.0703125 -0.0703125,0.26953125 H 3.3176484 Z m 0,0"
       style="fill:#0000ff;fill-opacity:1;fill-rule:nonzero;stroke:none"
       aria-label="2"
       transform="matrix(1.3333333,0,0,1.3333333,101.596,49.924)" />
    <path
       id="path11"
       d="m 6.5633594,-2.2956797 c 0.1757812,0 0.3515625,0 0.3515625,-0.1992187 0,-0.1992188 -0.1757813,-0.1992188 -0.3515625,-0.1992188 h -5.390625 c -0.1640625,0 -0.33984377,0 -0.33984377,0.1992188 0,0.1992187 0.17578127,0.1992187 0.33984377,0.1992187 z m 0,0"
       style="fill:#0000ff;fill-opacity:1;fill-rule:nonzero;stroke:none"
       aria-label="−"
       transform="matrix(1.3333333,0,0,1.3333333,110.50667,47.932)" />
    <path
       id="path12"
       d="m 0.56129687,-3.4089609 c 0,2.0625 1.60546873,3.63281246 3.45703123,3.63281246 1.6289063,0 2.6015625,-1.38281246 2.6015625,-2.54296876 0,-0.1054687 0,-0.1757812 -0.1289062,-0.1757812 -0.1054688,0 -0.1054688,0.070312 -0.1171875,0.1640625 -0.082031,1.42968746 -1.1484375,2.23828121 -2.2265625,2.23828121 -0.609375,0 -2.5664063,-0.33984375 -2.5664063,-3.30468751 0,-2.9765625 1.9453125,-3.3164062 2.5546875,-3.3164062 1.078125,0 1.96875,0.9023437 2.1679688,2.3671875 0.023437,0.1289062 0.023437,0.1640625 0.1640625,0.1640625 0.1523437,0 0.1523437,-0.035156 0.1523437,-0.234375 v -2.3671875 c 0,-0.1640625 0,-0.234375 -0.1054687,-0.234375 -0.035156,0 -0.082031,0 -0.1640625,0.1171875 l -0.4921875,0.7382812 c -0.375,-0.3632812 -0.8789063,-0.8554687 -1.8398438,-0.8554687 -1.8632812,0 -3.45703123,1.5820312 -3.45703123,3.609375 z M 13.299578,-6.0222422 c 0,-0.3632812 0.02344,-0.46875 0.785156,-0.46875 h 0.246094 v -0.3164062 c -0.351562,0.035156 -1.089844,0.035156 -1.464844,0.035156 -0.386718,0 -1.125,0 -1.476562,-0.035156 v 0.3164062 h 0.234375 c 0.773437,0 0.785156,0.1054688 0.785156,0.46875 v 2.3320313 H 9.4323906 v -2.3320313 c 0,-0.3632812 0.023437,-0.46875 0.7851564,-0.46875 h 0.246094 v -0.3164062 c -0.351563,0.035156 -1.0898441,0.035156 -1.4648441,0.035156 -0.375,0 -1.125,0 -1.4765625,-0.035156 v 0.3164062 h 0.234375 c 0.7734375,0 0.796875,0.1054688 0.796875,0.46875 v 5.25000001 c 0,0.3515625 -0.023437,0.46875 -0.796875,0.46875 h -0.234375 v 0.3046875 c 0.3515625,-0.03515625 1.0898437,-0.03515625 1.4648437,-0.03515625 0.375,0 1.1249999,0 1.4765629,0.03515625 v -0.3046875 h -0.246094 c -0.7617189,0 -0.7851564,-0.1171875 -0.7851564,-0.46875 V -3.3855234 h 2.9765624 v 2.61328121 c 0,0.3515625 -0.01172,0.46875 -0.785156,0.46875 h -0.234375 v 0.3046875 c 0.351562,-0.03515625 1.089844,-0.03515625 1.464844,-0.03515625 0.375,0 1.125,0 1.476562,0.03515625 v -0.3046875 h -0.246094 c -0.761718,0 -0.785156,-0.1171875 -0.785156,-0.46875 z m 0,0"
       style="fill:#0000ff;fill-opacity:1;fill-rule:nonzero;stroke:none"
       aria-label="CH"
       transform="matrix(1.3333333,0,0,1.3333333,123.79067,47.932)" />
    <path
       id="path13"
       d="m 1.8991797,-2.3306953 c 0.5507812,0 0.9375,0.375 0.9375,1.125 0,0.86718749 -0.5039063,1.12499999 -0.9023438,1.12499999 -0.28125,0 -0.890625,-0.08203125 -1.18359371,-0.4921875 0.32812501,-0.0117188 0.39843751,-0.24609375 0.39843751,-0.38671875 0,-0.22265624 -0.16406251,-0.38671874 -0.38671876,-0.38671874 -0.1875,0 -0.38671875,0.1171875 -0.38671875,0.41015624 0,0.65625 0.72656251,1.078125 1.57031251,1.078125 0.9726562,0 1.640625,-0.64453125 1.640625,-1.34765624 0,-0.5390625 -0.4453125,-1.0898438 -1.21875,-1.2421875 0.7382812,-0.2695313 0.9960937,-0.796875 0.9960937,-1.21875 0,-0.5507813 -0.6328125,-0.9609375 -1.40625,-0.9609375 -0.7734375,0 -1.35937496,0.375 -1.35937496,0.9375 0,0.234375 0.15234375,0.3632812 0.36328125,0.3632812 0.21093751,0 0.35156251,-0.1640625 0.35156251,-0.3515625 0,-0.1992187 -0.140625,-0.3515625 -0.35156251,-0.3632812 0.23437501,-0.3046875 0.71484371,-0.3867188 0.97265621,-0.3867188 0.3164063,0 0.7617188,0.1523438 0.7617188,0.7617188 0,0.2929687 -0.1054688,0.609375 -0.28125,0.8320312 -0.234375,0.2578125 -0.421875,0.28125 -0.7734375,0.2929688 -0.1757813,0.023437 -0.1875,0.023437 -0.2226563,0.023437 -0.011719,0 -0.070312,0.011719 -0.070312,0.09375 0,0.09375 0.058594,0.09375 0.1757813,0.09375 z m 0,0"
       style="fill:#0000ff;fill-opacity:1;fill-rule:nonzero;stroke:none"
       aria-label="3"
       transform="matrix(1.3333333,0,0,1.3333333,143.34667,49.924)" />
    <path
       id="path14"
       d="m 45.7181,3.40393 h 6.76624"
       style="fill:none;stroke:#ff0000;stroke-width:0.3985;stroke-linecap:butt;stroke-linejoin:miter;stroke-miterlimit:10;stroke-dasharray:none;stroke-opacity:1"
       transform="matrix(1.3333333,0,0,-1.3333333,9.4053333,48.928)" />
  </g>
</svg>
