<?xml version="1.0" encoding="UTF-8" standalone="no"?>
<!-- Created with Inkscape (http://www.inkscape.org/) -->

<svg
   version="1.1"
   id="svg1"
   width="158.00932"
   height="38.633331"
   viewBox="0 0 158.00932 38.633331"
   sodipodi:docname="upload_rucglspx2ymb3uro6fsdxicndt.pdf"
   xmlns:inkscape="http://www.inkscape.org/namespaces/inkscape"
   xmlns:sodipodi="http://sodipodi.sourceforge.net/DTD/sodipodi-0.dtd"
   xmlns="http://www.w3.org/2000/svg"
   xmlns:svg="http://www.w3.org/2000/svg">
  <defs
     id="defs1" />
  <sodipodi:namedview
     id="namedview1"
     pagecolor="#ffffff"
     bordercolor="#000000"
     borderopacity="0.25"
     inkscape:showpageshadow="2"
     inkscape:pageopacity="0.0"
     inkscape:pagecheckerboard="0"
     inkscape:deskcolor="#d1d1d1">
    <inkscape:page
       x="0"
       y="0"
       inkscape:label="1"
       id="page1"
       width="158.00932"
       height="38.633331"
       margin="0"
       bleed="0" />
  </sodipodi:namedview>
  <g
     id="g1"
     inkscape:groupmode="layer"
     inkscape:label="1">
    <path
       id="path1"
       d="m 6.1054687,-6.0219766 c 0,-0.3632812 0.023437,-0.46875 0.7851563,-0.46875 h 0.2460937 v -0.3164062 c -0.3515625,0.035156 -1.0898437,0.035156 -1.4648437,0.035156 -0.3867188,0 -1.125,0 -1.4765625,-0.035156 v 0.3164062 h 0.234375 c 0.7734375,0 0.7851562,0.1054688 0.7851562,0.46875 v 2.3320313 H 2.2382813 v -2.3320313 c 0,-0.3632812 0.023437,-0.46875 0.7851562,-0.46875 h 0.2460938 v -0.3164062 c -0.3515625,0.035156 -1.0898438,0.035156 -1.4648438,0.035156 -0.375,0 -1.125,0 -1.4765625,-0.035156 v 0.3164062 H 0.5625 c 0.7734375,0 0.796875,0.1054688 0.796875,0.46875 v 5.25000004 c 0,0.3515625 -0.023437,0.46875 -0.796875,0.46875 H 0.328125 v 0.3046875 c 0.3515625,-0.03515625 1.0898437,-0.03515625 1.4648437,-0.03515625 0.3750001,0 1.1250001,0 1.4765626,0.03515625 v -0.3046875 H 3.0234375 c -0.7617187,0 -0.7851562,-0.1171875 -0.7851562,-0.46875 V -3.3852578 h 2.9765624 v 2.61328124 c 0,0.3515625 -0.011719,0.46875 -0.7851562,0.46875 h -0.234375 v 0.3046875 c 0.3515625,-0.03515625 1.0898437,-0.03515625 1.4648437,-0.03515625 0.375,0 1.125,0 1.4765625,0.03515625 v -0.3046875 H 6.890625 c -0.7617188,0 -0.7851563,-0.1171875 -0.7851563,-0.46875 z m 0,0"
       style="fill:#800080;fill-opacity:1;fill-rule:nonzero;stroke:none"
       aria-label="H"
       transform="matrix(1.3333333,0,0,1.3333333,0,22.361333)" />
    <path
       id="path2"
       d="m 7.1845703,-3.3735391 c 0,-2.0390625 -1.5,-3.6445312 -3.3164062,-3.6445312 -1.78125,0 -3.30468754,1.59375 -3.30468754,3.6445312 0,2.0390625 1.53515624,3.59765629 3.30468754,3.59765629 1.8164062,0 3.3164062,-1.58203129 3.3164062,-3.59765629 z m -3.3046875,3.33984379 c -0.9609375,0 -2.296875,-0.87890625 -2.296875,-3.48046879 0,-2.578125 1.453125,-3.2578125 2.2851563,-3.2578125 0.8671875,0 2.2851562,0.703125 2.2851562,3.2578125 0,2.63671879 -1.359375,3.48046879 -2.2734375,3.48046879 z m 0,0"
       style="fill:#0000ff;fill-opacity:1;fill-rule:nonzero;stroke:none"
       aria-label="O"
       transform="matrix(1.3333333,0,0,1.3333333,39.666667,22.361333)" />
    <path
       id="path3"
       d="M 5.72838,3.40393 H 24.02156"
       style="fill:none;stroke:#0000ff;stroke-width:0.3985;stroke-linecap:butt;stroke-linejoin:miter;stroke-miterlimit:10;stroke-dasharray:none;stroke-opacity:1"
       transform="matrix(1.3333333,0,0,-1.3333333,4.9813333,22.361333)" />
    <path
       id="path4"
       d="m 0.56353906,-3.4086953 c 0,2.0625 1.60546874,3.63281249 3.45703124,3.63281249 1.6289063,0 2.6015625,-1.38281249 2.6015625,-2.54296879 0,-0.1054687 0,-0.1757812 -0.1289062,-0.1757812 -0.1054688,0 -0.1054688,0.070312 -0.1171875,0.1640625 -0.082031,1.42968749 -1.1484375,2.23828124 -2.2265625,2.23828124 -0.609375,0 -2.5664063,-0.33984375 -2.5664063,-3.30468754 0,-2.9765625 1.9453125,-3.3164062 2.5546875,-3.3164062 1.078125,0 1.96875,0.9023437 2.1679688,2.3671875 0.023437,0.1289062 0.023437,0.1640625 0.1640625,0.1640625 0.1523437,0 0.1523437,-0.035156 0.1523437,-0.234375 v -2.3671875 c 0,-0.1640625 0,-0.234375 -0.1054687,-0.234375 -0.035156,0 -0.082031,0 -0.1640625,0.1171875 l -0.4921875,0.7382812 c -0.375,-0.3632812 -0.8789063,-0.8554687 -1.8398438,-0.8554687 -1.8632812,0 -3.45703124,1.5820312 -3.45703124,3.609375 z m 0,0"
       style="fill:#0000ff;fill-opacity:1;fill-rule:nonzero;stroke:none"
       aria-label="C"
       transform="matrix(1.3333333,0,0,1.3333333,79.885333,22.361333)" />
    <g
       id="g4"
       aria-label="H&#10;2"
       transform="matrix(1.3333333,0,0,1.3333333,89.48,22.361333)">
      <path
         id="path5"
         d="m 6.1058203,-6.0219766 c 0,-0.3632812 0.023437,-0.46875 0.7851563,-0.46875 h 0.2460937 v -0.3164062 c -0.3515625,0.035156 -1.0898437,0.035156 -1.4648437,0.035156 -0.3867188,0 -1.125,0 -1.4765625,-0.035156 v 0.3164062 h 0.234375 c 0.7734375,0 0.7851562,0.1054688 0.7851562,0.46875 v 2.3320313 H 2.2386328 v -2.3320313 c 0,-0.3632812 0.023437,-0.46875 0.7851563,-0.46875 h 0.2460937 v -0.3164062 c -0.3515625,0.035156 -1.0898437,0.035156 -1.4648437,0.035156 -0.375,0 -1.12500004,0 -1.47656254,-0.035156 v 0.3164062 h 0.234375 c 0.77343754,0 0.79687504,0.1054688 0.79687504,0.46875 v 5.25000004 c 0,0.3515625 -0.023437,0.46875 -0.79687504,0.46875 h -0.234375 v 0.3046875 c 0.3515625,-0.03515625 1.08984374,-0.03515625 1.46484374,-0.03515625 0.375,0 1.125,0 1.4765625,0.03515625 v -0.3046875 H 3.0237891 c -0.7617188,0 -0.7851563,-0.1171875 -0.7851563,-0.46875 V -3.3852578 h 2.9765625 v 2.61328124 c 0,0.3515625 -0.011719,0.46875 -0.7851562,0.46875 h -0.234375 v 0.3046875 c 0.3515625,-0.03515625 1.0898437,-0.03515625 1.4648437,-0.03515625 0.375,0 1.125,0 1.4765625,0.03515625 v -0.3046875 H 6.8909766 c -0.7617188,0 -0.7851563,-0.1171875 -0.7851563,-0.46875 z m 0,0"
         style="fill:#0000ff;fill-opacity:1;fill-rule:nonzero;stroke:none" />
      <path
         id="path6"
         d="m 10.98668,0.22704688 h -0.234375 c -0.02344,0.15234375 -0.08203,0.5625 -0.175782,0.6328125 -0.05859,0.0351563 -0.5976558,0.0351563 -0.6914058,0.0351563 H 8.5960547 c 0.7382812,-0.64453125 0.984375,-0.84375 1.3945312,-1.171875 0.5156251,-0.41015625 0.9960941,-0.84374998 0.9960941,-1.50000008 0,-0.84375 -0.738282,-1.359375 -1.6289066,-1.359375 -0.8671875,0 -1.453125,0.609375 -1.453125,1.2421875 0,0.3632813 0.3046875,0.3984375 0.375,0.3984375 0.1640625,0 0.375,-0.1171875 0.375,-0.375 0,-0.1289062 -0.058594,-0.3632812 -0.421875,-0.3632812 0.2226563,-0.5039063 0.6914063,-0.65625 1.0195313,-0.65625 0.703125,0 1.0664063,0.5507812 1.0664063,1.1132813 0,0.609375 -0.4335938,1.08984373 -0.6562501,1.33593748 l -1.6875,1.66406252 c -0.070312,0.058594 -0.070312,0.070312 -0.070312,0.2695312 h 2.8828131 z m 0,0"
         style="fill:#0000ff;fill-opacity:1;fill-rule:nonzero;stroke:none" />
    </g>
    <path
       id="path7"
       d="M 35.75517,3.40393 H 54.18661"
       style="fill:none;stroke:#0000ff;stroke-width:0.3985;stroke-linecap:butt;stroke-linejoin:miter;stroke-miterlimit:10;stroke-dasharray:none;stroke-opacity:1"
       transform="matrix(1.3333333,0,0,-1.3333333,4.9813333,22.361333)" />
    <path
       id="path8"
       d="m 0.56357031,-3.4115547 c 0,2.0625 1.60546879,3.63281251 3.45703129,3.63281251 1.6289062,0 2.6015625,-1.38281251 2.6015625,-2.54296871 0,-0.1054688 0,-0.1757813 -0.1289063,-0.1757813 -0.1054687,0 -0.1054687,0.070312 -0.1171875,0.1640625 -0.082031,1.42968751 -1.1484375,2.23828126 -2.2265625,2.23828126 -0.609375,0 -2.5664062,-0.33984375 -2.5664062,-3.30468746 0,-2.9765625 1.9453125,-3.3164063 2.5546875,-3.3164063 1.078125,0 1.96875,0.9023438 2.1679687,2.3671875 0.023437,0.1289063 0.023437,0.1640625 0.1640625,0.1640625 0.1523438,0 0.1523438,-0.035156 0.1523438,-0.234375 v -2.3671875 c 0,-0.1640625 0,-0.234375 -0.1054688,-0.234375 -0.035156,0 -0.082031,0 -0.1640625,0.1171875 l -0.4921875,0.7382813 c -0.375,-0.3632813 -0.8789062,-0.8554688 -1.8398437,-0.8554688 -1.8632813,0 -3.45703129,1.5820313 -3.45703129,3.609375 z m 0,0"
       style="fill:#0000ff;fill-opacity:1;fill-rule:nonzero;stroke:none"
       aria-label="C"
       transform="matrix(1.3333333,0,0,1.3333333,132.49467,23.357333)" />
    <g
       id="g8"
       aria-label="H&#10;3"
       transform="matrix(1.3333333,0,0,1.3333333,142.088,23.357333)">
      <path
         id="path9"
         d="m 6.1068516,-6.0248359 c 0,-0.3632813 0.023437,-0.46875 0.7851562,-0.46875 h 0.2460938 v -0.3164063 c -0.3515625,0.035156 -1.0898438,0.035156 -1.4648438,0.035156 -0.3867187,0 -1.125,0 -1.4765625,-0.035156 v 0.3164063 h 0.234375 c 0.7734375,0 0.7851563,0.1054687 0.7851563,0.46875 v 2.3320312 H 2.2396641 v -2.3320312 c 0,-0.3632813 0.023437,-0.46875 0.7851562,-0.46875 h 0.2460938 v -0.3164063 c -0.3515625,0.035156 -1.0898438,0.035156 -1.4648438,0.035156 -0.375,0 -1.12499999,0 -1.47656249,-0.035156 v 0.3164063 h 0.234375 c 0.77343749,0 0.79687499,0.1054687 0.79687499,0.46875 v 5.24999996 c 0,0.3515625 -0.023437,0.46875 -0.79687499,0.46875 h -0.234375 v 0.3046875 c 0.3515625,-0.03515625 1.08984379,-0.03515625 1.46484379,-0.03515625 0.375,0 1.125,0 1.4765625,0.03515625 v -0.3046875 H 3.0248203 c -0.7617187,0 -0.7851562,-0.1171875 -0.7851562,-0.46875 V -3.3881172 h 2.9765625 v 2.61328126 c 0,0.3515625 -0.011719,0.46875 -0.7851563,0.46875 h -0.234375 v 0.3046875 c 0.3515625,-0.03515625 1.0898438,-0.03515625 1.4648438,-0.03515625 0.375,0 1.125,0 1.4765625,0.03515625 v -0.3046875 H 6.8920078 c -0.7617187,0 -0.7851562,-0.1171875 -0.7851562,-0.46875 z m 0,0"
         style="fill:#0000ff;fill-opacity:1;fill-rule:nonzero;stroke:none" />
      <path
         id="path10"
         d="m 9.3705234,-0.83928906 c 0.5507813,0 0.9374996,0.375 0.9374996,1.125 0,0.86718746 -0.5039058,1.12499996 -0.9023433,1.12499996 -0.28125,0 -0.890625,-0.082031 -1.1835938,-0.49218746 0.328125,-0.0117188 0.3984375,-0.24609375 0.3984375,-0.38671875 0,-0.22265625 -0.1640625,-0.38671875 -0.3867187,-0.38671875 -0.1875,0 -0.3867188,0.1171875 -0.3867188,0.41015625 0,0.65625001 0.7265625,1.07812501 1.5703125,1.07812501 0.9726566,0 1.6406246,-0.64453126 1.6406246,-1.34765626 0,-0.5390625 -0.445312,-1.08984375 -1.2187496,-1.2421875 0.7382816,-0.26953124 0.9960936,-0.79687504 0.9960936,-1.21875004 0,-0.5507812 -0.632812,-0.9609375 -1.4062498,-0.9609375 -0.7734375,0 -1.359375,0.375 -1.359375,0.9375 0,0.234375 0.1523437,0.3632813 0.3632812,0.3632813 0.2109375,0 0.3515625,-0.1640625 0.3515625,-0.3515625 0,-0.1992188 -0.140625,-0.3515625 -0.3515625,-0.3632813 0.234375,-0.3046875 0.7148438,-0.3867187 0.9726563,-0.3867187 0.3164062,0 0.7617183,0.1523437 0.7617183,0.7617187 0,0.2929688 -0.105468,0.609375 -0.2812496,0.8320313 -0.234375,0.2578125 -0.421875,0.28125 -0.7734375,0.2929687 -0.1757812,0.023437 -0.1875,0.023437 -0.2226562,0.023437 -0.011719,0 -0.070312,0.011719 -0.070312,0.09375 0,0.09375 0.058594,0.09375 0.1757812,0.09375 z m 0,0"
         style="fill:#0000ff;fill-opacity:1;fill-rule:nonzero;stroke:none" />
    </g>
    <path
       id="path11"
       d="M 77.3083,2.65674 H 93.64337"
       style="fill:none;stroke:#0000ff;stroke-width:0.3985;stroke-linecap:butt;stroke-linejoin:miter;stroke-miterlimit:10;stroke-dasharray:none;stroke-opacity:1"
       transform="matrix(1.3333333,0,0,-1.3333333,4.9813333,22.361333)" />
  </g>
</svg>
