<?xml version="1.0" encoding="UTF-8" standalone="no"?>
<!-- Created with Inkscape (http://www.inkscape.org/) -->

<svg
   version="1.1"
   id="svg1"
   width="115.52"
   height="76.490669"
   viewBox="0 0 115.52 76.490669"
   sodipodi:docname="upload_zu2zpipk2xhchrpkecspcwqbb2.pdf"
   xmlns:inkscape="http://www.inkscape.org/namespaces/inkscape"
   xmlns:sodipodi="http://sodipodi.sourceforge.net/DTD/sodipodi-0.dtd"
   xmlns="http://www.w3.org/2000/svg"
   xmlns:svg="http://www.w3.org/2000/svg">
  <defs
     id="defs1" />
  <sodipodi:namedview
     id="namedview1"
     pagecolor="#ffffff"
     bordercolor="#000000"
     borderopacity="0.25"
     inkscape:showpageshadow="2"
     inkscape:pageopacity="0.0"
     inkscape:pagecheckerboard="0"
     inkscape:deskcolor="#d1d1d1">
    <inkscape:page
       x="0"
       y="0"
       inkscape:label="1"
       id="page1"
       width="115.52"
       height="76.490669"
       margin="0"
       bleed="0" />
  </sodipodi:namedview>
  <g
     id="g1"
     inkscape:groupmode="layer"
     inkscape:label="1">
    <path
       id="path1"
       d="m 0.5625,-3.4100234 c 0,2.0625 1.6054688,3.63281246 3.4570312,3.63281246 1.6289063,0 2.6015625,-1.38281246 2.6015625,-2.54296876 0,-0.1054687 0,-0.1757812 -0.1289062,-0.1757812 -0.1054688,0 -0.1054688,0.070312 -0.1171875,0.1640625 -0.082031,1.42968746 -1.1484375,2.23828121 -2.2265625,2.23828121 -0.609375,0 -2.5664063,-0.33984375 -2.5664063,-3.30468751 0,-2.9765625 1.9453126,-3.3164062 2.5546875,-3.3164062 1.078125,0 1.96875,0.9023437 2.1679688,2.3671875 0.023437,0.1289062 0.023437,0.1640625 0.1640625,0.1640625 0.1523437,0 0.1523437,-0.035156 0.1523437,-0.234375 v -2.3671875 c 0,-0.1640625 0,-0.234375 -0.1054687,-0.234375 -0.035156,0 -0.082031,0 -0.1640625,0.1171875 L 5.859375,-6.1639297 c -0.375,-0.3632812 -0.8789063,-0.8554687 -1.8398438,-0.8554687 -1.8632812,0 -3.4570312,1.5820312 -3.4570312,3.609375 z m 0,0"
       style="fill:#ff0000;fill-opacity:1;fill-rule:nonzero;stroke:none"
       aria-label="C"
       transform="matrix(1.3333333,0,0,1.3333333,0,61.214667)" />
    <g
       id="g2"
       aria-label="H&#10;3"
       transform="matrix(1.3333333,0,0,1.3333333,9.5933333,61.214667)">
      <path
         id="path2"
         d="m 6.1057813,-6.0233047 c 0,-0.3632812 0.023437,-0.46875 0.7851562,-0.46875 h 0.2460938 v -0.3164062 c -0.3515625,0.035156 -1.0898438,0.035156 -1.4648438,0.035156 -0.3867187,0 -1.125,0 -1.4765625,-0.035156 v 0.3164062 H 4.43 c 0.7734375,0 0.7851563,0.1054688 0.7851563,0.46875 v 2.3320313 H 2.2385938 v -2.3320313 c 0,-0.3632812 0.023437,-0.46875 0.7851562,-0.46875 H 3.2698438 V -6.8084609 C 2.9182813,-6.7733047 2.18,-6.7733047 1.805,-6.7733047 c -0.375,0 -1.125,0 -1.4765625,-0.035156 v 0.3164062 h 0.234375 c 0.7734375,0 0.796875,0.1054688 0.796875,0.46875 v 5.25000001 c 0,0.3515625 -0.023437,0.46875 -0.796875,0.46875 H 0.3284375 V 1.328125e-4 C 0.68,-0.03502344 1.4182813,-0.03502344 1.7932813,-0.03502344 c 0.375,0 1.125,0 1.4765625,0.0351562525 V -0.30455469 H 3.02375 c -0.7617187,0 -0.7851562,-0.1171875 -0.7851562,-0.46875 V -3.3865859 h 2.9765625 v 2.61328121 c 0,0.3515625 -0.011719,0.46875 -0.7851563,0.46875 H 4.195625 V 1.328125e-4 C 4.5471875,-0.03502344 5.2854688,-0.03502344 5.6604688,-0.03502344 c 0.375,0 1.125,0 1.4765625,0.0351562525 V -0.30455469 H 6.8909375 c -0.7617187,0 -0.7851562,-0.1171875 -0.7851562,-0.46875 z m 0,0"
         style="fill:#ff0000;fill-opacity:1;fill-rule:nonzero;stroke:none" />
      <path
         id="path3"
         d="m 9.3694531,-0.83775781 c 0.5507813,0 0.9374999,0.375 0.9374999,1.125 0,0.86718751 -0.5039061,1.12500001 -0.9023436,1.12500001 -0.28125,0 -0.890625,-0.082031 -1.1835938,-0.49218751 0.328125,-0.0117188 0.3984375,-0.24609375 0.3984375,-0.38671875 0,-0.22265625 -0.1640625,-0.38671875 -0.3867187,-0.38671875 -0.1875,0 -0.3867188,0.1171875 -0.3867188,0.41015625 0,0.65624996 0.7265625,1.07812496 1.5703125,1.07812496 0.9726559,0 1.6406249,-0.64453121 1.6406249,-1.34765621 0,-0.5390625 -0.445312,-1.08984375 -1.2187499,-1.2421875 0.7382809,-0.26953129 0.9960939,-0.79687499 0.9960939,-1.21874999 0,-0.5507813 -0.632813,-0.9609375 -1.4062501,-0.9609375 -0.7734375,0 -1.359375,0.375 -1.359375,0.9375 0,0.234375 0.1523437,0.3632812 0.3632812,0.3632812 0.2109375,0 0.3515625,-0.1640625 0.3515625,-0.3515625 0,-0.1992187 -0.140625,-0.3515625 -0.3515625,-0.3632812 0.234375,-0.3046875 0.7148438,-0.3867188 0.9726563,-0.3867188 0.3164062,0 0.7617186,0.1523438 0.7617186,0.7617188 0,0.2929687 -0.105469,0.609375 -0.2812499,0.8320312 -0.234375,0.2578125 -0.421875,0.28125 -0.7734375,0.2929688 -0.1757812,0.023437 -0.1875,0.023437 -0.2226562,0.023437 -0.011719,0 -0.070312,0.011719 -0.070312,0.09375 0,0.09375 0.058594,0.09375 0.1757812,0.09375 z m 0,0"
         style="fill:#ff0000;fill-opacity:1;fill-rule:nonzero;stroke:none" />
    </g>
    <path
       id="path4"
       d="m 0.56353125,-3.4099531 c 0,2.0625 1.60546875,3.63281247 3.45703125,3.63281247 1.6289063,0 2.6015625,-1.38281247 2.6015625,-2.54296877 0,-0.1054687 0,-0.1757812 -0.1289062,-0.1757812 -0.1054688,0 -0.1054688,0.070312 -0.1171875,0.1640625 -0.082031,1.42968747 -1.1484375,2.23828122 -2.2265625,2.23828122 -0.609375,0 -2.5664063,-0.33984375 -2.5664063,-3.30468752 0,-2.9765625 1.9453125,-3.3164062 2.5546875,-3.3164062 1.078125,0 1.96875,0.9023437 2.1679688,2.3671875 0.023437,0.1289062 0.023437,0.1640625 0.1640625,0.1640625 0.1523437,0 0.1523437,-0.035156 0.1523437,-0.234375 v -2.3671875 c 0,-0.1640625 0,-0.234375 -0.1054687,-0.234375 -0.035156,0 -0.082031,0 -0.1640625,0.1171875 l -0.4921875,0.7382812 c -0.375,-0.3632812 -0.8789063,-0.8554687 -1.8398438,-0.8554687 -1.8632812,0 -3.45703125,1.5820312 -3.45703125,3.609375 z m 0,0"
       style="fill:#ff0000;fill-opacity:1;fill-rule:nonzero;stroke:none"
       aria-label="C"
       transform="matrix(1.3333333,0,0,1.3333333,52.608,62.210667)" />
    <path
       id="path5"
       d="M 17.5316,2.65674 H 33.86667"
       style="fill:none;stroke:#ff0000;stroke-width:0.3985;stroke-linecap:butt;stroke-linejoin:miter;stroke-miterlimit:10;stroke-dasharray:none;stroke-opacity:1"
       transform="matrix(1.3333333,0,0,-1.3333333,4.7973333,61.214667)" />
    <path
       id="path6"
       d="m 7.1823047,-3.3754687 c 0,-2.0390625 -1.5,-3.6445313 -3.3164063,-3.6445313 -1.78125,0 -3.30468746,1.59375 -3.30468746,3.6445313 0,2.0390625 1.53515626,3.5976562 3.30468746,3.5976562 1.8164063,0 3.3164063,-1.5820312 3.3164063,-3.5976562 z M 3.8776172,-0.035625 c -0.9609375,0 -2.296875,-0.87890625 -2.296875,-3.4804687 0,-2.578125 1.453125,-3.2578125 2.2851562,-3.2578125 0.8671875,0 2.2851563,0.703125 2.2851563,3.2578125 0,2.6367187 -1.359375,3.4804687 -2.2734375,3.4804687 z m 0,0"
       style="fill:#ff0000;fill-opacity:1;fill-rule:nonzero;stroke:none"
       aria-label="O"
       transform="matrix(1.3333333,0,0,1.3333333,52.24,22.36)" />
    <path
       id="path7"
       d="M 38.4605,8.0533 V 27.14851"
       style="fill:none;stroke:#ff0000;stroke-width:0.3985;stroke-linecap:butt;stroke-linejoin:miter;stroke-miterlimit:10;stroke-dasharray:none;stroke-opacity:1"
       transform="matrix(1.3333333,0,0,-1.3333333,4.7973333,61.214667)" />
    <path
       id="path8"
       d="M 40.45305,8.0533 V 27.14851"
       style="fill:none;stroke:#ff0000;stroke-width:0.3985;stroke-linecap:butt;stroke-linejoin:miter;stroke-miterlimit:10;stroke-dasharray:none;stroke-opacity:1"
       transform="matrix(1.3333333,0,0,-1.3333333,4.7973333,61.214667)" />
    <g
       id="g8"
       aria-label="O−H"
       transform="matrix(1.3333333,0,0,1.3333333,78.990667,61.657333)">
      <path
         id="path9"
         d="m 7.1847344,-3.3758125 c 0,-2.0390625 -1.5,-3.6445313 -3.3164063,-3.6445313 -1.78125,0 -3.30468747,1.59375 -3.30468747,3.6445313 0,2.0390625 1.53515627,3.59765625 3.30468747,3.59765625 1.8164063,0 3.3164063,-1.58203125 3.3164063,-3.59765625 z m -3.3046875,3.33984375 c -0.9609375,0 -2.296875,-0.87890625 -2.296875,-3.48046875 0,-2.578125 1.453125,-3.2578125 2.2851562,-3.2578125 0.8671875,0 2.2851563,0.703125 2.2851563,3.2578125 0,2.63671875 -1.359375,3.48046875 -2.2734375,3.48046875 z m 0,0"
         style="fill:#800080;fill-opacity:1;fill-rule:nonzero;stroke:none" />
      <path
         id="path10"
         d="m 16.521648,-2.2976875 c 0.175782,0 0.351563,0 0.351563,-0.1992188 0,-0.1992187 -0.175781,-0.1992187 -0.351563,-0.1992187 h -5.390625 c -0.164062,0 -0.339843,0 -0.339843,0.1992187 0,0.1992188 0.175781,0.1992188 0.339843,0.1992188 z m 0,0"
         style="fill:#800080;fill-opacity:1;fill-rule:nonzero;stroke:none" />
      <path
         id="path11"
         d="m 26.025555,-6.02425 c 0,-0.3632813 0.02344,-0.46875 0.785156,-0.46875 h 0.246094 v -0.3164063 c -0.351563,0.035156 -1.089844,0.035156 -1.464844,0.035156 -0.386719,0 -1.125,0 -1.476563,-0.035156 V -6.493 h 0.234375 c 0.773438,0 0.785157,0.1054687 0.785157,0.46875 v 2.3320312 H 22.158367 V -6.02425 c 0,-0.3632813 0.02344,-0.46875 0.785156,-0.46875 h 0.246094 v -0.3164063 c -0.351562,0.035156 -1.089844,0.035156 -1.464844,0.035156 -0.375,0 -1.125,0 -1.476562,-0.035156 V -6.493 h 0.234375 c 0.773437,0 0.796875,0.1054687 0.796875,0.46875 v 5.25 c 0,0.3515625 -0.02344,0.46875 -0.796875,0.46875 h -0.234375 v 0.3046875 c 0.351562,-0.03515625 1.089844,-0.03515625 1.464844,-0.03515625 0.375,0 1.125,0 1.476562,0.03515625 V -0.3055 h -0.246094 c -0.761718,0 -0.785156,-0.1171875 -0.785156,-0.46875 V -3.3875313 H 25.13493 V -0.77425 c 0,0.3515625 -0.01172,0.46875 -0.785157,0.46875 h -0.234375 v 0.3046875 c 0.351563,-0.03515625 1.089844,-0.03515625 1.464844,-0.03515625 0.375,0 1.125,0 1.476563,0.03515625 V -0.3055 h -0.246094 c -0.761719,0 -0.785156,-0.1171875 -0.785156,-0.46875 z m 0,0"
         style="fill:#800080;fill-opacity:1;fill-rule:nonzero;stroke:none" />
    </g>
    <path
       id="path12"
       d="m 45.0469,2.65674 h 8.60697"
       style="fill:none;stroke:#ff0000;stroke-width:0.3985;stroke-linecap:butt;stroke-linejoin:miter;stroke-miterlimit:10;stroke-dasharray:none;stroke-opacity:1"
       transform="matrix(1.3333333,0,0,-1.3333333,4.7973333,61.214667)" />
  </g>
</svg>
