<?xml version="1.0" encoding="UTF-8" standalone="no"?>
<!-- Created with Inkscape (http://www.inkscape.org/) -->

<svg
   version="1.1"
   id="svg1"
   width="102.948"
   height="76.047997"
   viewBox="0 0 102.948 76.047997"
   sodipodi:docname="upload_sptd43vmlugjtenpoaq4743vem.pdf"
   xmlns:inkscape="http://www.inkscape.org/namespaces/inkscape"
   xmlns:sodipodi="http://sodipodi.sourceforge.net/DTD/sodipodi-0.dtd"
   xmlns="http://www.w3.org/2000/svg"
   xmlns:svg="http://www.w3.org/2000/svg">
  <defs
     id="defs1" />
  <sodipodi:namedview
     id="namedview1"
     pagecolor="#ffffff"
     bordercolor="#000000"
     borderopacity="0.25"
     inkscape:showpageshadow="2"
     inkscape:pageopacity="0.0"
     inkscape:pagecheckerboard="0"
     inkscape:deskcolor="#d1d1d1">
    <inkscape:page
       x="0"
       y="0"
       inkscape:label="1"
       id="page1"
       width="102.948"
       height="76.047997"
       margin="0"
       bleed="0" />
  </sodipodi:namedview>
  <g
     id="g1"
     inkscape:groupmode="layer"
     inkscape:label="1">
    <path
       id="path1"
       d="m 6.1054687,-6.0232344 c 0,-0.3632812 0.023437,-0.46875 0.7851563,-0.46875 h 0.2460937 v -0.3164062 c -0.3515625,0.035156 -1.0898437,0.035156 -1.4648437,0.035156 -0.3867188,0 -1.125,0 -1.4765625,-0.035156 v 0.3164062 h 0.234375 c 0.7734375,0 0.7851562,0.1054688 0.7851562,0.46875 v 2.3320313 H 2.2382813 v -2.3320313 c 0,-0.3632812 0.023437,-0.46875 0.7851562,-0.46875 h 0.2460938 v -0.3164062 c -0.3515625,0.035156 -1.0898438,0.035156 -1.4648438,0.035156 -0.375,0 -1.125,0 -1.4765625,-0.035156 v 0.3164062 H 0.5625 c 0.7734375,0 0.796875,0.1054688 0.796875,0.46875 v 5.25000002 c 0,0.3515625 -0.023437,0.46875 -0.796875,0.46875 H 0.328125 V 2.03125e-4 C 0.6796875,-0.03495313 1.4179687,-0.03495313 1.7929687,-0.03495313 c 0.3750001,0 1.1250001,0 1.4765626,0.035156255 V -0.30448438 H 3.0234375 c -0.7617187,0 -0.7851562,-0.1171875 -0.7851562,-0.46875 V -3.3865156 h 2.9765624 v 2.61328122 c 0,0.3515625 -0.011719,0.46875 -0.7851562,0.46875 H 4.1953125 V 2.03125e-4 C 4.546875,-0.03495313 5.2851562,-0.03495313 5.6601562,-0.03495313 c 0.375,0 1.125,0 1.4765625,0.035156255 V -0.30448438 H 6.890625 c -0.7617188,0 -0.7851563,-0.1171875 -0.7851563,-0.46875 z m 0,0"
       style="fill:#ff0000;fill-opacity:1;fill-rule:nonzero;stroke:none"
       aria-label="H"
       transform="matrix(1.3333333,0,0,1.3333333,0,62.210667)" />
    <path
       id="path2"
       d="m 0.56286719,-3.4099531 c 0,2.0625 1.60546871,3.63281247 3.45703121,3.63281247 1.6289063,0 2.6015625,-1.38281247 2.6015625,-2.54296877 0,-0.1054687 0,-0.1757812 -0.1289062,-0.1757812 -0.1054688,0 -0.1054688,0.070312 -0.1171875,0.1640625 -0.082031,1.42968747 -1.1484375,2.23828122 -2.2265625,2.23828122 -0.609375,0 -2.5664063,-0.33984375 -2.5664063,-3.30468752 0,-2.9765625 1.9453125,-3.3164062 2.5546875,-3.3164062 1.078125,0 1.96875,0.9023437 2.1679688,2.3671875 0.023437,0.1289062 0.023437,0.1640625 0.1640625,0.1640625 0.1523437,0 0.1523437,-0.035156 0.1523437,-0.234375 v -2.3671875 c 0,-0.1640625 0,-0.234375 -0.1054687,-0.234375 -0.035156,0 -0.082031,0 -0.1640625,0.1171875 l -0.4921875,0.7382812 c -0.375,-0.3632812 -0.8789063,-0.8554687 -1.8398438,-0.8554687 -1.8632812,0 -3.45703121,1.5820312 -3.45703121,3.609375 z m 0,0"
       style="fill:#ff0000;fill-opacity:1;fill-rule:nonzero;stroke:none"
       aria-label="C"
       transform="matrix(1.3333333,0,0,1.3333333,40.034667,62.210667)" />
    <path
       id="path3"
       d="M 5.72835,3.40393 H 24.29836"
       style="fill:none;stroke:#ff0000;stroke-width:0.3985;stroke-linecap:butt;stroke-linejoin:miter;stroke-miterlimit:10;stroke-dasharray:none;stroke-opacity:1"
       transform="matrix(1.3333333,0,0,-1.3333333,4.9813333,62.210667)" />
    <path
       id="path4"
       d="m 7.1845703,-3.3754687 c 0,-2.0390625 -1.5,-3.6445313 -3.3164062,-3.6445313 -1.78125,0 -3.30468754,1.59375 -3.30468754,3.6445313 0,2.0390625 1.53515624,3.5976562 3.30468754,3.5976562 1.8164062,0 3.3164062,-1.5820312 3.3164062,-3.5976562 z M 3.8798828,-0.035625 c -0.9609375,0 -2.296875,-0.87890625 -2.296875,-3.4804687 0,-2.578125 1.453125,-3.2578125 2.2851563,-3.2578125 0.8671875,0 2.2851562,0.703125 2.2851562,3.2578125 0,2.6367187 -1.359375,3.4804687 -2.2734375,3.4804687 z m 0,0"
       style="fill:#ff0000;fill-opacity:1;fill-rule:nonzero;stroke:none"
       aria-label="O"
       transform="matrix(1.3333333,0,0,1.3333333,39.666667,22.36)" />
    <path
       id="path5"
       d="M 28.89206,8.80049 V 27.8957"
       style="fill:none;stroke:#ff0000;stroke-width:0.3985;stroke-linecap:butt;stroke-linejoin:miter;stroke-miterlimit:10;stroke-dasharray:none;stroke-opacity:1"
       transform="matrix(1.3333333,0,0,-1.3333333,4.9813333,62.210667)" />
    <path
       id="path6"
       d="M 30.88461,8.80049 V 27.8957"
       style="fill:none;stroke:#ff0000;stroke-width:0.3985;stroke-linecap:butt;stroke-linejoin:miter;stroke-miterlimit:10;stroke-dasharray:none;stroke-opacity:1"
       transform="matrix(1.3333333,0,0,-1.3333333,4.9813333,62.210667)" />
    <g
       id="g6"
       aria-label="O−H"
       transform="matrix(1.3333333,0,0,1.3333333,66.417333,61.657333)">
      <path
         id="path7"
         d="m 7.1840703,-3.3758125 c 0,-2.0390625 -1.5,-3.6445313 -3.3164062,-3.6445313 -1.78125,0 -3.30468754,1.59375 -3.30468754,3.6445313 0,2.0390625 1.53515624,3.59765625 3.30468754,3.59765625 1.8164062,0 3.3164062,-1.58203125 3.3164062,-3.59765625 z m -3.3046875,3.33984375 c -0.9609375,0 -2.296875,-0.87890625 -2.296875,-3.48046875 0,-2.578125 1.453125,-3.2578125 2.2851563,-3.2578125 0.8671875,0 2.2851562,0.703125 2.2851562,3.2578125 0,2.63671875 -1.359375,3.48046875 -2.2734375,3.48046875 z m 0,0"
         style="fill:#800080;fill-opacity:1;fill-rule:nonzero;stroke:none" />
      <path
         id="path8"
         d="m 16.523914,-2.2976875 c 0.175781,0 0.351563,0 0.351563,-0.1992188 0,-0.1992187 -0.175782,-0.1992187 -0.351563,-0.1992187 h -5.390625 c -0.164062,0 -0.339844,0 -0.339844,0.1992187 0,0.1992188 0.175782,0.1992188 0.339844,0.1992188 z m 0,0"
         style="fill:#800080;fill-opacity:1;fill-rule:nonzero;stroke:none" />
      <path
         id="path9"
         d="m 26.02782,-6.02425 c 0,-0.3632813 0.02344,-0.46875 0.785157,-0.46875 h 0.246093 v -0.3164063 c -0.351562,0.035156 -1.089843,0.035156 -1.464843,0.035156 -0.386719,0 -1.125,0 -1.476563,-0.035156 V -6.493 h 0.234375 c 0.773438,0 0.785156,0.1054687 0.785156,0.46875 v 2.3320312 H 22.160633 V -6.02425 c 0,-0.3632813 0.02344,-0.46875 0.785156,-0.46875 h 0.246094 v -0.3164063 c -0.351563,0.035156 -1.089844,0.035156 -1.464844,0.035156 -0.375,0 -1.125,0 -1.476562,-0.035156 V -6.493 h 0.234375 c 0.773437,0 0.796875,0.1054687 0.796875,0.46875 v 5.25 c 0,0.3515625 -0.02344,0.46875 -0.796875,0.46875 h -0.234375 v 0.3046875 c 0.351562,-0.03515625 1.089843,-0.03515625 1.464843,-0.03515625 0.375,0 1.125,0 1.476563,0.03515625 V -0.3055 h -0.246094 c -0.761719,0 -0.785156,-0.1171875 -0.785156,-0.46875 v -2.6132813 h 2.976562 V -0.77425 c 0,0.3515625 -0.01172,0.46875 -0.785156,0.46875 h -0.234375 v 0.3046875 c 0.351563,-0.03515625 1.089844,-0.03515625 1.464844,-0.03515625 0.375,0 1.125,0 1.476562,0.03515625 V -0.3055 h -0.246093 c -0.761719,0 -0.785157,-0.1171875 -0.785157,-0.46875 z m 0,0"
         style="fill:#800080;fill-opacity:1;fill-rule:nonzero;stroke:none" />
    </g>
    <path
       id="path10"
       d="m 35.47847,3.40393 h 8.60696"
       style="fill:none;stroke:#ff0000;stroke-width:0.3985;stroke-linecap:butt;stroke-linejoin:miter;stroke-miterlimit:10;stroke-dasharray:none;stroke-opacity:1"
       transform="matrix(1.3333333,0,0,-1.3333333,4.9813333,62.210667)" />
  </g>
</svg>
