<?xml version="1.0" encoding="UTF-8" standalone="no"?>
<!-- Created with Inkscape (http://www.inkscape.org/) -->

<svg
   version="1.1"
   id="svg1"
   width="105.40133"
   height="37.636002"
   viewBox="0 0 105.40133 37.636002"
   sodipodi:docname="upload_giwzdplsdnxj7vytl6rvts5x6p.pdf"
   xmlns:inkscape="http://www.inkscape.org/namespaces/inkscape"
   xmlns:sodipodi="http://sodipodi.sourceforge.net/DTD/sodipodi-0.dtd"
   xmlns="http://www.w3.org/2000/svg"
   xmlns:svg="http://www.w3.org/2000/svg">
  <defs
     id="defs1" />
  <sodipodi:namedview
     id="namedview1"
     pagecolor="#ffffff"
     bordercolor="#000000"
     borderopacity="0.25"
     inkscape:showpageshadow="2"
     inkscape:pageopacity="0.0"
     inkscape:pagecheckerboard="0"
     inkscape:deskcolor="#d1d1d1">
    <inkscape:page
       x="0"
       y="0"
       inkscape:label="1"
       id="page1"
       width="105.40133"
       height="37.636002"
       margin="0"
       bleed="0" />
  </sodipodi:namedview>
  <g
     id="g1"
     inkscape:groupmode="layer"
     inkscape:label="1">
    <path
       id="path1"
       d="m 6.1054687,-6.0239062 c 0,-0.3632813 0.023437,-0.46875 0.7851563,-0.46875 h 0.2460937 v -0.3164063 c -0.3515625,0.035156 -1.0898437,0.035156 -1.4648437,0.035156 -0.3867188,0 -1.125,0 -1.4765625,-0.035156 v 0.3164063 h 0.234375 c 0.7734375,0 0.7851562,0.1054687 0.7851562,0.46875 V -3.691875 H 2.2382813 v -2.3320312 c 0,-0.3632813 0.023437,-0.46875 0.7851562,-0.46875 h 0.2460938 v -0.3164063 c -0.3515625,0.035156 -1.0898438,0.035156 -1.4648438,0.035156 -0.375,0 -1.125,0 -1.4765625,-0.035156 v 0.3164063 H 0.5625 c 0.7734375,0 0.796875,0.1054687 0.796875,0.46875 v 5.24999995 c 0,0.3515625 -0.023437,0.46875 -0.796875,0.46875 H 0.328125 v 0.3046875 C 0.6796875,-0.035625 1.4179687,-0.035625 1.7929687,-0.035625 c 0.3750001,0 1.1250001,0 1.4765626,0.03515625 v -0.3046875 H 3.0234375 c -0.7617187,0 -0.7851562,-0.1171875 -0.7851562,-0.46875 V -3.3871875 h 2.9765624 v 2.61328125 c 0,0.3515625 -0.011719,0.46875 -0.7851562,0.46875 h -0.234375 v 0.3046875 C 4.546875,-0.035625 5.2851562,-0.035625 5.6601562,-0.035625 c 0.375,0 1.125,0 1.4765625,0.03515625 v -0.3046875 H 6.890625 c -0.7617188,0 -0.7851563,-0.1171875 -0.7851563,-0.46875 z m 0,0"
       style="fill:#800080;fill-opacity:1;fill-rule:nonzero;stroke:none"
       aria-label="H"
       transform="matrix(1.3333333,0,0,1.3333333,0,22.36)" />
    <path
       id="path2"
       d="m 7.1845703,-3.3754687 c 0,-2.0390625 -1.5,-3.6445313 -3.3164062,-3.6445313 -1.78125,0 -3.30468754,1.59375 -3.30468754,3.6445313 0,2.0390625 1.53515624,3.5976562 3.30468754,3.5976562 1.8164062,0 3.3164062,-1.5820312 3.3164062,-3.5976562 z M 3.8798828,-0.035625 c -0.9609375,0 -2.296875,-0.87890625 -2.296875,-3.4804687 0,-2.578125 1.453125,-3.2578125 2.2851563,-3.2578125 0.8671875,0 2.2851562,0.703125 2.2851562,3.2578125 0,2.6367187 -1.359375,3.4804687 -2.2734375,3.4804687 z m 0,0"
       style="fill:#0000ff;fill-opacity:1;fill-rule:nonzero;stroke:none"
       aria-label="O"
       transform="matrix(1.3333333,0,0,1.3333333,39.666667,22.36)" />
    <path
       id="path3"
       d="M 5.72838,3.40393 H 24.02156"
       style="fill:none;stroke:#0000ff;stroke-width:0.3985;stroke-linecap:butt;stroke-linejoin:miter;stroke-miterlimit:10;stroke-dasharray:none;stroke-opacity:1"
       transform="matrix(1.3333333,0,0,-1.3333333,4.9813333,22.36)" />
    <path
       id="path4"
       d="m 0.56353906,-3.410625 c 0,2.0625 1.60546874,3.6328125 3.45703124,3.6328125 1.6289063,0 2.6015625,-1.3828125 2.6015625,-2.5429687 0,-0.1054688 0,-0.1757813 -0.1289062,-0.1757813 -0.1054688,0 -0.1054688,0.070312 -0.1171875,0.1640625 -0.082031,1.4296875 -1.1484375,2.23828125 -2.2265625,2.23828125 -0.609375,0 -2.5664063,-0.33984375 -2.5664063,-3.30468745 0,-2.9765625 1.9453125,-3.3164063 2.5546875,-3.3164063 1.078125,0 1.96875,0.9023438 2.1679688,2.3671875 0.023437,0.1289063 0.023437,0.1640625 0.1640625,0.1640625 0.1523437,0 0.1523437,-0.035156 0.1523437,-0.234375 V -6.785625 c 0,-0.1640625 0,-0.234375 -0.1054687,-0.234375 -0.035156,0 -0.082031,0 -0.1640625,0.1171875 L 5.8604141,-6.1645312 C 5.4854141,-6.5278125 4.9815078,-7.02 4.0205703,-7.02 c -1.8632812,0 -3.45703124,1.5820313 -3.45703124,3.609375 z m 0,0"
       style="fill:#0000ff;fill-opacity:1;fill-rule:nonzero;stroke:none"
       aria-label="C"
       transform="matrix(1.3333333,0,0,1.3333333,79.885333,22.36)" />
    <g
       id="g4"
       aria-label="H&#10;3"
       transform="matrix(1.3333333,0,0,1.3333333,89.48,22.36)">
      <path
         id="path5"
         d="m 6.1058203,-6.0239062 c 0,-0.3632813 0.023437,-0.46875 0.7851563,-0.46875 h 0.2460937 v -0.3164063 c -0.3515625,0.035156 -1.0898437,0.035156 -1.4648437,0.035156 -0.3867188,0 -1.125,0 -1.4765625,-0.035156 v 0.3164063 h 0.234375 c 0.7734375,0 0.7851562,0.1054687 0.7851562,0.46875 V -3.691875 H 2.2386328 v -2.3320312 c 0,-0.3632813 0.023437,-0.46875 0.7851563,-0.46875 h 0.2460937 v -0.3164063 c -0.3515625,0.035156 -1.0898437,0.035156 -1.4648437,0.035156 -0.375,0 -1.12500004,0 -1.47656254,-0.035156 v 0.3164063 h 0.234375 c 0.77343754,0 0.79687504,0.1054687 0.79687504,0.46875 v 5.24999995 c 0,0.3515625 -0.023437,0.46875 -0.79687504,0.46875 h -0.234375 v 0.3046875 C 0.68003906,-0.035625 1.4183203,-0.035625 1.7933203,-0.035625 c 0.375,0 1.125,0 1.4765625,0.03515625 v -0.3046875 H 3.0237891 c -0.7617188,0 -0.7851563,-0.1171875 -0.7851563,-0.46875 V -3.3871875 h 2.9765625 v 2.61328125 c 0,0.3515625 -0.011719,0.46875 -0.7851562,0.46875 h -0.234375 v 0.3046875 C 4.5472266,-0.035625 5.2855078,-0.035625 5.6605078,-0.035625 c 0.375,0 1.125,0 1.4765625,0.03515625 v -0.3046875 H 6.8909766 c -0.7617188,0 -0.7851563,-0.1171875 -0.7851563,-0.46875 z m 0,0"
         style="fill:#0000ff;fill-opacity:1;fill-rule:nonzero;stroke:none" />
      <path
         id="path6"
         d="m 9.3694922,-0.83835937 c 0.5507812,0 0.9374998,0.375 0.9374998,1.125 0,0.86718747 -0.5039061,1.12499997 -0.9023436,1.12499997 -0.28125,0 -0.890625,-0.082031 -1.1835937,-0.49218747 0.328125,-0.0117188 0.3984375,-0.24609375 0.3984375,-0.38671875 0,-0.22265625 -0.1640625,-0.38671875 -0.3867188,-0.38671875 -0.1875,0 -0.3867187,0.1171875 -0.3867187,0.41015625 0,0.65625002 0.7265625,1.07812502 1.5703125,1.07812502 0.9726558,0 1.6406248,-0.64453127 1.6406248,-1.34765627 0,-0.5390625 -0.445312,-1.08984375 -1.2187498,-1.2421875 0.7382808,-0.26953123 0.9960938,-0.79687503 0.9960938,-1.21875003 0,-0.5507812 -0.632813,-0.9609375 -1.4062501,-0.9609375 -0.7734375,0 -1.359375,0.375 -1.359375,0.9375 0,0.234375 0.1523438,0.3632813 0.3632813,0.3632813 0.2109375,0 0.3515625,-0.1640625 0.3515625,-0.3515625 0,-0.1992188 -0.140625,-0.3515625 -0.3515625,-0.3632813 0.234375,-0.3046875 0.7148437,-0.3867187 0.9726562,-0.3867187 0.3164063,0 0.7617186,0.1523437 0.7617186,0.7617187 0,0.2929688 -0.105469,0.609375 -0.2812498,0.8320313 -0.234375,0.2578125 -0.421875,0.28125 -0.7734375,0.2929687 -0.1757813,0.023437 -0.1875,0.023437 -0.2226563,0.023437 -0.011719,0 -0.070312,0.011719 -0.070312,0.09375 0,0.09375 0.058594,0.09375 0.1757813,0.09375 z m 0,0"
         style="fill:#0000ff;fill-opacity:1;fill-rule:nonzero;stroke:none" />
    </g>
    <path
       id="path7"
       d="M 35.75517,3.40393 H 54.18661"
       style="fill:none;stroke:#0000ff;stroke-width:0.3985;stroke-linecap:butt;stroke-linejoin:miter;stroke-miterlimit:10;stroke-dasharray:none;stroke-opacity:1"
       transform="matrix(1.3333333,0,0,-1.3333333,4.9813333,22.36)" />
  </g>
</svg>
