<?xml version="1.0" encoding="UTF-8" standalone="no"?>
<!-- Created with Inkscape (http://www.inkscape.org/) -->

<svg
   version="1.1"
   id="svg1"
   width="168.12933"
   height="76.490669"
   viewBox="0 0 168.12933 76.490669"
   sodipodi:docname="upload_4sgfeb6hovum46ka6art3q4jxm.pdf"
   xmlns:inkscape="http://www.inkscape.org/namespaces/inkscape"
   xmlns:sodipodi="http://sodipodi.sourceforge.net/DTD/sodipodi-0.dtd"
   xmlns="http://www.w3.org/2000/svg"
   xmlns:svg="http://www.w3.org/2000/svg">
  <defs
     id="defs1" />
  <sodipodi:namedview
     id="namedview1"
     pagecolor="#ffffff"
     bordercolor="#000000"
     borderopacity="0.25"
     inkscape:showpageshadow="2"
     inkscape:pageopacity="0.0"
     inkscape:pagecheckerboard="0"
     inkscape:deskcolor="#d1d1d1">
    <inkscape:page
       x="0"
       y="0"
       inkscape:label="1"
       id="page1"
       width="168.12933"
       height="76.490669"
       margin="0"
       bleed="0" />
  </sodipodi:namedview>
  <g
     id="g1"
     inkscape:groupmode="layer"
     inkscape:label="1">
    <path
       id="path1"
       d="m 0.5625,-3.4100938 c 0,2.0625 1.6054688,3.63281255 3.4570312,3.63281255 1.6289063,0 2.6015625,-1.38281255 2.6015625,-2.54296875 0,-0.1054688 0,-0.1757813 -0.1289062,-0.1757813 -0.1054688,0 -0.1054688,0.070312 -0.1171875,0.1640625 -0.082031,1.42968755 -1.1484375,2.2382813 -2.2265625,2.2382813 -0.609375,0 -2.5664063,-0.33984375 -2.5664063,-3.3046875 0,-2.9765625 1.9453126,-3.3164063 2.5546875,-3.3164063 1.078125,0 1.96875,0.9023438 2.1679688,2.3671875 0.023437,0.1289063 0.023437,0.1640625 0.1640625,0.1640625 0.1523437,0 0.1523437,-0.035156 0.1523437,-0.234375 v -2.3671875 c 0,-0.1640625 0,-0.234375 -0.1054687,-0.234375 -0.035156,0 -0.082031,0 -0.1640625,0.1171875 L 5.859375,-6.164 c -0.375,-0.3632813 -0.8789063,-0.8554688 -1.8398438,-0.8554688 -1.8632812,0 -3.4570312,1.5820313 -3.4570312,3.609375 z m 0,0"
       style="fill:#ff0000;fill-opacity:1;fill-rule:nonzero;stroke:none"
       aria-label="C"
       transform="matrix(1.3333333,0,0,1.3333333,0,60.218667)" />
    <g
       id="g2"
       aria-label="H&#10;3"
       transform="matrix(1.3333333,0,0,1.3333333,9.5933333,60.218667)">
      <path
         id="path2"
         d="m 6.1057813,-6.023375 c 0,-0.3632813 0.023437,-0.46875 0.7851562,-0.46875 h 0.2460938 v -0.3164063 c -0.3515625,0.035156 -1.0898438,0.035156 -1.4648438,0.035156 -0.3867187,0 -1.125,0 -1.4765625,-0.035156 V -6.492125 H 4.43 c 0.7734375,0 0.7851563,0.1054687 0.7851563,0.46875 v 2.3320312 H 2.2385938 V -6.023375 c 0,-0.3632813 0.023437,-0.46875 0.7851562,-0.46875 H 3.2698438 V -6.8085313 C 2.9182813,-6.773375 2.18,-6.773375 1.805,-6.773375 c -0.375,0 -1.125,0 -1.4765625,-0.035156 v 0.3164063 h 0.234375 c 0.7734375,0 0.796875,0.1054687 0.796875,0.46875 v 5.25 c 0,0.3515625 -0.023437,0.46875 -0.796875,0.46875 H 0.3284375 V 6.25e-5 C 0.68,-0.03509375 1.4182813,-0.03509375 1.7932813,-0.03509375 c 0.375,0 1.125,0 1.4765625,0.03515625 V -0.304625 H 3.02375 c -0.7617187,0 -0.7851562,-0.1171875 -0.7851562,-0.46875 v -2.6132813 h 2.9765625 v 2.6132813 c 0,0.3515625 -0.011719,0.46875 -0.7851563,0.46875 H 4.195625 V 6.25e-5 c 0.3515625,-0.03515625 1.0898438,-0.03515625 1.4648438,-0.03515625 0.375,0 1.125,0 1.4765625,0.03515625 V -0.304625 H 6.8909375 c -0.7617187,0 -0.7851562,-0.1171875 -0.7851562,-0.46875 z m 0,0"
         style="fill:#ff0000;fill-opacity:1;fill-rule:nonzero;stroke:none" />
      <path
         id="path3"
         d="m 9.3694531,-0.83782813 c 0.5507813,0 0.9374999,0.375 0.9374999,1.125 0,0.86718753 -0.5039061,1.12500003 -0.9023436,1.12500003 -0.28125,0 -0.890625,-0.082031 -1.1835938,-0.49218753 0.328125,-0.0117188 0.3984375,-0.24609375 0.3984375,-0.38671875 0,-0.22265625 -0.1640625,-0.38671875 -0.3867187,-0.38671875 -0.1875,0 -0.3867188,0.1171875 -0.3867188,0.41015625 0,0.65624998 0.7265625,1.07812498 1.5703125,1.07812498 0.9726559,0 1.6406249,-0.64453123 1.6406249,-1.34765623 0,-0.5390625 -0.445312,-1.08984375 -1.2187499,-1.2421875 0.7382809,-0.26953127 0.9960939,-0.79687497 0.9960939,-1.21874997 0,-0.5507813 -0.632813,-0.9609375 -1.4062501,-0.9609375 -0.7734375,0 -1.359375,0.375 -1.359375,0.9375 0,0.234375 0.1523437,0.3632812 0.3632812,0.3632812 0.2109375,0 0.3515625,-0.1640625 0.3515625,-0.3515625 0,-0.1992187 -0.140625,-0.3515625 -0.3515625,-0.3632812 0.234375,-0.3046875 0.7148438,-0.3867188 0.9726563,-0.3867188 0.3164062,0 0.7617186,0.1523438 0.7617186,0.7617188 0,0.2929687 -0.105469,0.609375 -0.2812499,0.8320312 -0.234375,0.2578125 -0.421875,0.28125 -0.7734375,0.2929688 -0.1757812,0.023437 -0.1875,0.023437 -0.2226562,0.023437 -0.011719,0 -0.070312,0.011719 -0.070312,0.09375 0,0.09375 0.058594,0.09375 0.1757812,0.09375 z m 0,0"
         style="fill:#ff0000;fill-opacity:1;fill-rule:nonzero;stroke:none" />
    </g>
    <path
       id="path4"
       d="m 0.56353125,-3.4100234 c 0,2.0625 1.60546875,3.63281246 3.45703125,3.63281246 1.6289063,0 2.6015625,-1.38281246 2.6015625,-2.54296876 0,-0.1054687 0,-0.1757812 -0.1289062,-0.1757812 -0.1054688,0 -0.1054688,0.070312 -0.1171875,0.1640625 -0.082031,1.42968746 -1.1484375,2.23828121 -2.2265625,2.23828121 -0.609375,0 -2.5664063,-0.33984375 -2.5664063,-3.30468751 0,-2.9765625 1.9453125,-3.3164062 2.5546875,-3.3164062 1.078125,0 1.96875,0.9023437 2.1679688,2.3671875 0.023437,0.1289062 0.023437,0.1640625 0.1640625,0.1640625 0.1523437,0 0.1523437,-0.035156 0.1523437,-0.234375 v -2.3671875 c 0,-0.1640625 0,-0.234375 -0.1054687,-0.234375 -0.035156,0 -0.082031,0 -0.1640625,0.1171875 l -0.4921875,0.7382812 c -0.375,-0.3632812 -0.8789063,-0.8554687 -1.8398438,-0.8554687 -1.8632812,0 -3.45703125,1.5820312 -3.45703125,3.609375 z m 0,0"
       style="fill:#ff0000;fill-opacity:1;fill-rule:nonzero;stroke:none"
       aria-label="C"
       transform="matrix(1.3333333,0,0,1.3333333,52.608,61.214667)" />
    <g
       id="g4"
       aria-label="H&#10;2"
       transform="matrix(1.3333333,0,0,1.3333333,62.202667,61.214667)">
      <path
         id="path5"
         d="m 6.1058125,-6.0233047 c 0,-0.3632812 0.023437,-0.46875 0.7851563,-0.46875 h 0.2460937 v -0.3164062 c -0.3515625,0.035156 -1.0898437,0.035156 -1.4648437,0.035156 -0.3867188,0 -1.125,0 -1.4765625,-0.035156 v 0.3164062 h 0.234375 c 0.7734375,0 0.7851562,0.1054688 0.7851562,0.46875 v 2.3320313 H 2.238625 v -2.3320313 c 0,-0.3632812 0.023437,-0.46875 0.7851563,-0.46875 H 3.269875 v -0.3164062 c -0.3515625,0.035156 -1.0898437,0.035156 -1.4648437,0.035156 -0.375,0 -1.12500005,0 -1.47656255,-0.035156 v 0.3164062 h 0.234375 c 0.77343755,0 0.79687505,0.1054688 0.79687505,0.46875 v 5.25000001 c 0,0.3515625 -0.023437,0.46875 -0.79687505,0.46875 h -0.234375 V 1.328125e-4 C 0.68003125,-0.03502344 1.4183125,-0.03502344 1.7933125,-0.03502344 c 0.375,0 1.125,0 1.4765625,0.0351562525 V -0.30455469 H 3.0237813 c -0.7617188,0 -0.7851563,-0.1171875 -0.7851563,-0.46875 V -3.3865859 h 2.9765625 v 2.61328121 c 0,0.3515625 -0.011719,0.46875 -0.7851562,0.46875 H 4.1956563 V 1.328125e-4 C 4.5472188,-0.03502344 5.2855,-0.03502344 5.6605,-0.03502344 c 0.375,0 1.125,0 1.4765625,0.0351562525 V -0.30455469 H 6.8909688 c -0.7617188,0 -0.7851563,-0.1171875 -0.7851563,-0.46875 z m 0,0"
         style="fill:#ff0000;fill-opacity:1;fill-rule:nonzero;stroke:none" />
      <path
         id="path6"
         d="m 10.986672,0.22864844 h -0.234375 c -0.02344,0.15234375 -0.08203,0.5625 -0.175781,0.6328125 -0.05859,0.0351563 -0.5976566,0.0351563 -0.6914066,0.0351563 H 8.5960469 c 0.7382812,-0.64453125 0.984375,-0.84375 1.3945312,-1.171875 0.5156249,-0.41015625 0.9960939,-0.84374994 0.9960939,-1.50000004 0,-0.84375 -0.738281,-1.359375 -1.6289064,-1.359375 -0.8671875,0 -1.453125,0.609375 -1.453125,1.2421875 0,0.3632812 0.3046875,0.3984375 0.375,0.3984375 0.1640625,0 0.375,-0.1171875 0.375,-0.375 0,-0.1289063 -0.058594,-0.3632813 -0.421875,-0.3632813 0.2226563,-0.5039062 0.6914063,-0.65625 1.0195313,-0.65625 0.703125,0 1.0664061,0.5507813 1.0664061,1.1132813 0,0.609375 -0.4335936,1.08984379 -0.6562499,1.33593754 l -1.6875,1.66406246 c -0.070312,0.058594 -0.070312,0.070312 -0.070312,0.2695312 h 2.8828119 z m 0,0"
         style="fill:#ff0000;fill-opacity:1;fill-rule:nonzero;stroke:none" />
    </g>
    <path
       id="path7"
       d="M 17.5316,2.65674 H 33.86667"
       style="fill:none;stroke:#ff0000;stroke-width:0.3985;stroke-linecap:butt;stroke-linejoin:miter;stroke-miterlimit:10;stroke-dasharray:none;stroke-opacity:1"
       transform="matrix(1.3333333,0,0,-1.3333333,4.7973333,60.218667)" />
    <path
       id="path8"
       d="m 0.5635625,-3.4099531 c 0,2.0625 1.6054688,3.63281247 3.4570313,3.63281247 1.6289062,0 2.6015625,-1.38281247 2.6015625,-2.54296877 0,-0.1054687 0,-0.1757812 -0.1289063,-0.1757812 -0.1054687,0 -0.1054687,0.070312 -0.1171875,0.1640625 -0.082031,1.42968747 -1.1484375,2.23828122 -2.2265625,2.23828122 -0.609375,0 -2.5664062,-0.33984375 -2.5664062,-3.30468752 0,-2.9765625 1.9453125,-3.3164062 2.5546875,-3.3164062 1.078125,0 1.96875,0.9023437 2.1679687,2.3671875 0.023437,0.1289062 0.023437,0.1640625 0.1640625,0.1640625 0.1523438,0 0.1523438,-0.035156 0.1523438,-0.234375 v -2.3671875 c 0,-0.1640625 0,-0.234375 -0.1054688,-0.234375 -0.035156,0 -0.082031,0 -0.1640625,0.1171875 l -0.4921875,0.7382812 c -0.375,-0.3632812 -0.8789062,-0.8554687 -1.8398437,-0.8554687 -1.8632813,0 -3.4570313,1.5820312 -3.4570313,3.609375 z m 0,0"
       style="fill:#ff0000;fill-opacity:1;fill-rule:nonzero;stroke:none"
       aria-label="C"
       transform="matrix(1.3333333,0,0,1.3333333,105.21733,62.210667)" />
    <path
       id="path9"
       d="M 56.98837,1.90955 H 73.32346"
       style="fill:none;stroke:#ff0000;stroke-width:0.3985;stroke-linecap:butt;stroke-linejoin:miter;stroke-miterlimit:10;stroke-dasharray:none;stroke-opacity:1"
       transform="matrix(1.3333333,0,0,-1.3333333,4.7973333,60.218667)" />
    <path
       id="path10"
       d="m 7.1833359,-3.3754687 c 0,-2.0390625 -1.5,-3.6445313 -3.3164062,-3.6445313 -1.78125,0 -3.30468751,1.59375 -3.30468751,3.6445313 0,2.0390625 1.53515621,3.5976562 3.30468751,3.5976562 1.8164062,0 3.3164062,-1.5820312 3.3164062,-3.5976562 z M 3.8786484,-0.035625 c -0.9609375,0 -2.296875,-0.87890625 -2.296875,-3.4804687 0,-2.578125 1.453125,-3.2578125 2.2851563,-3.2578125 0.8671875,0 2.2851562,0.703125 2.2851562,3.2578125 0,2.6367187 -1.359375,3.4804687 -2.2734375,3.4804687 z m 0,0"
       style="fill:#ff0000;fill-opacity:1;fill-rule:nonzero;stroke:none"
       aria-label="O"
       transform="matrix(1.3333333,0,0,1.3333333,104.848,22.36)" />
    <path
       id="path11"
       d="M 77.91728,7.3061 V 26.40132"
       style="fill:none;stroke:#ff0000;stroke-width:0.3985;stroke-linecap:butt;stroke-linejoin:miter;stroke-miterlimit:10;stroke-dasharray:none;stroke-opacity:1"
       transform="matrix(1.3333333,0,0,-1.3333333,4.7973333,60.218667)" />
    <path
       id="path12"
       d="M 79.90984,7.3061 V 26.40132"
       style="fill:none;stroke:#ff0000;stroke-width:0.3985;stroke-linecap:butt;stroke-linejoin:miter;stroke-miterlimit:10;stroke-dasharray:none;stroke-opacity:1"
       transform="matrix(1.3333333,0,0,-1.3333333,4.7973333,60.218667)" />
    <g
       id="g12"
       aria-label="O−H"
       transform="matrix(1.3333333,0,0,1.3333333,131.6,61.657333)">
      <path
         id="path13"
         d="m 7.1847656,-3.3758125 c 0,-2.0390625 -1.5,-3.6445313 -3.3164062,-3.6445313 -1.78125,0 -3.30468752,1.59375 -3.30468752,3.6445313 0,2.0390625 1.53515622,3.59765625 3.30468752,3.59765625 1.8164062,0 3.3164062,-1.58203125 3.3164062,-3.59765625 z m -3.3046875,3.33984375 c -0.9609375,0 -2.296875,-0.87890625 -2.296875,-3.48046875 0,-2.578125 1.453125,-3.2578125 2.2851563,-3.2578125 0.8671875,0 2.2851562,0.703125 2.2851562,3.2578125 0,2.63671875 -1.359375,3.48046875 -2.2734375,3.48046875 z m 0,0"
         style="fill:#800080;fill-opacity:1;fill-rule:nonzero;stroke:none" />
      <path
         id="path14"
         d="m 16.52168,-2.2976875 c 0.175781,0 0.351562,0 0.351562,-0.1992188 0,-0.1992187 -0.175781,-0.1992187 -0.351562,-0.1992187 h -5.390625 c -0.164063,0 -0.339844,0 -0.339844,0.1992187 0,0.1992188 0.175781,0.1992188 0.339844,0.1992188 z m 0,0"
         style="fill:#800080;fill-opacity:1;fill-rule:nonzero;stroke:none" />
      <path
         id="path15"
         d="m 26.025586,-6.02425 c 0,-0.3632813 0.02344,-0.46875 0.785156,-0.46875 h 0.246094 v -0.3164063 c -0.351563,0.035156 -1.089844,0.035156 -1.464844,0.035156 -0.386719,0 -1.125,0 -1.476562,-0.035156 V -6.493 h 0.234375 c 0.773437,0 0.785156,0.1054687 0.785156,0.46875 v 2.3320312 H 22.158398 V -6.02425 c 0,-0.3632813 0.02344,-0.46875 0.785157,-0.46875 h 0.246093 v -0.3164063 c -0.351562,0.035156 -1.089843,0.035156 -1.464843,0.035156 -0.375,0 -1.125,0 -1.476563,-0.035156 V -6.493 h 0.234375 c 0.773438,0 0.796875,0.1054687 0.796875,0.46875 v 5.25 c 0,0.3515625 -0.02344,0.46875 -0.796875,0.46875 h -0.234375 v 0.3046875 c 0.351563,-0.03515625 1.089844,-0.03515625 1.464844,-0.03515625 0.375,0 1.125,0 1.476562,0.03515625 V -0.3055 h -0.246093 c -0.761719,0 -0.785157,-0.1171875 -0.785157,-0.46875 v -2.6132813 h 2.976563 V -0.77425 c 0,0.3515625 -0.01172,0.46875 -0.785156,0.46875 H 24.11543 v 0.3046875 c 0.351562,-0.03515625 1.089843,-0.03515625 1.464843,-0.03515625 0.375,0 1.125,0 1.476563,0.03515625 V -0.3055 h -0.246094 c -0.761719,0 -0.785156,-0.1171875 -0.785156,-0.46875 z m 0,0"
         style="fill:#800080;fill-opacity:1;fill-rule:nonzero;stroke:none" />
    </g>
    <path
       id="path16"
       d="m 84.5037,1.90955 h 8.60696"
       style="fill:none;stroke:#ff0000;stroke-width:0.3985;stroke-linecap:butt;stroke-linejoin:miter;stroke-miterlimit:10;stroke-dasharray:none;stroke-opacity:1"
       transform="matrix(1.3333333,0,0,-1.3333333,4.7973333,60.218667)" />
  </g>
</svg>
